<svg width="142" height="50" viewBox="0 0 142 50" fill="none" xmlns="http://www.w3.org/2000/svg">
<g filter="url(#filter0_dd_1_1573)">
<rect x="3.40039" y="2" width="135.2" height="44" rx="8" fill="url(#paint0_linear_1_1573)" shape-rendering="crispEdges"/>
<path d="M27.6284 19.27C28.6644 19.27 29.5697 19.4707 30.3444 19.872C31.1284 20.264 31.7304 20.8333 32.1504 21.58C32.5797 22.3173 32.7944 23.1807 32.7944 24.17C32.7944 25.1593 32.5797 26.018 32.1504 26.746C31.7304 27.474 31.1284 28.034 30.3444 28.426C29.5697 28.8087 28.6644 29 27.6284 29H24.4504V19.27H27.6284ZM27.6284 27.698C28.7671 27.698 29.6397 27.39 30.2464 26.774C30.8531 26.158 31.1564 25.29 31.1564 24.17C31.1564 23.0407 30.8531 22.1587 30.2464 21.524C29.6397 20.8893 28.7671 20.572 27.6284 20.572H26.0464V27.698H27.6284ZM37.7222 29.126C36.9942 29.126 36.3362 28.9627 35.7482 28.636C35.1602 28.3 34.6982 27.8333 34.3622 27.236C34.0262 26.6293 33.8582 25.9293 33.8582 25.136C33.8582 24.352 34.0308 23.6567 34.3762 23.05C34.7215 22.4433 35.1928 21.9767 35.7902 21.65C36.3875 21.3233 37.0548 21.16 37.7922 21.16C38.5295 21.16 39.1968 21.3233 39.7942 21.65C40.3915 21.9767 40.8628 22.4433 41.2082 23.05C41.5535 23.6567 41.7262 24.352 41.7262 25.136C41.7262 25.92 41.5488 26.6153 41.1942 27.222C40.8395 27.8287 40.3542 28.3 39.7382 28.636C39.1315 28.9627 38.4595 29.126 37.7222 29.126ZM37.7222 27.74C38.1328 27.74 38.5155 27.642 38.8702 27.446C39.2342 27.25 39.5282 26.956 39.7522 26.564C39.9762 26.172 40.0882 25.696 40.0882 25.136C40.0882 24.576 39.9808 24.1047 39.7662 23.722C39.5515 23.33 39.2668 23.036 38.9122 22.84C38.5575 22.644 38.1748 22.546 37.7642 22.546C37.3535 22.546 36.9708 22.644 36.6162 22.84C36.2708 23.036 35.9955 23.33 35.7902 23.722C35.5848 24.1047 35.4822 24.576 35.4822 25.136C35.4822 25.9667 35.6922 26.6107 36.1122 27.068C36.5415 27.516 37.0782 27.74 37.7222 27.74ZM53.6639 21.286L51.2699 29H49.5899L48.0359 23.302L46.4819 29H44.8019L42.3939 21.286H44.0179L45.6279 27.488L47.2659 21.286H48.9319L50.4999 27.46L52.0959 21.286H53.6639ZM58.7486 21.16C59.3553 21.16 59.8966 21.286 60.3726 21.538C60.858 21.79 61.236 22.1633 61.5066 22.658C61.7773 23.1527 61.9126 23.75 61.9126 24.45V29H60.3306V24.688C60.3306 23.9973 60.158 23.47 59.8126 23.106C59.4673 22.7327 58.996 22.546 58.3986 22.546C57.8013 22.546 57.3253 22.7327 56.9706 23.106C56.6253 23.47 56.4526 23.9973 56.4526 24.688V29H54.8566V21.286H56.4526V22.168C56.714 21.8507 57.0453 21.6033 57.4466 21.426C57.8573 21.2487 58.2913 21.16 58.7486 21.16ZM65.5444 18.64V29H63.9484V18.64H65.5444ZM70.9858 29.126C70.2578 29.126 69.5998 28.9627 69.0118 28.636C68.4238 28.3 67.9618 27.8333 67.6258 27.236C67.2898 26.6293 67.1218 25.9293 67.1218 25.136C67.1218 24.352 67.2945 23.6567 67.6398 23.05C67.9852 22.4433 68.4565 21.9767 69.0538 21.65C69.6512 21.3233 70.3185 21.16 71.0558 21.16C71.7932 21.16 72.4605 21.3233 73.0578 21.65C73.6552 21.9767 74.1265 22.4433 74.4718 23.05C74.8172 23.6567 74.9898 24.352 74.9898 25.136C74.9898 25.92 74.8125 26.6153 74.4578 27.222C74.1032 27.8287 73.6178 28.3 73.0018 28.636C72.3952 28.9627 71.7232 29.126 70.9858 29.126ZM70.9858 27.74C71.3965 27.74 71.7792 27.642 72.1338 27.446C72.4978 27.25 72.7918 26.956 73.0158 26.564C73.2398 26.172 73.3518 25.696 73.3518 25.136C73.3518 24.576 73.2445 24.1047 73.0298 23.722C72.8152 23.33 72.5305 23.036 72.1758 22.84C71.8212 22.644 71.4385 22.546 71.0278 22.546C70.6172 22.546 70.2345 22.644 69.8798 22.84C69.5345 23.036 69.2592 23.33 69.0538 23.722C68.8485 24.1047 68.7458 24.576 68.7458 25.136C68.7458 25.9667 68.9558 26.6107 69.3758 27.068C69.8052 27.516 70.3418 27.74 70.9858 27.74ZM76.0356 25.108C76.0356 24.3333 76.1942 23.6473 76.5116 23.05C76.8382 22.4527 77.2769 21.9907 77.8276 21.664C78.3876 21.328 79.0036 21.16 79.6756 21.16C80.2822 21.16 80.8096 21.2813 81.2576 21.524C81.7149 21.7573 82.0789 22.0513 82.3496 22.406V21.286H83.9596V29H82.3496V27.852C82.0789 28.216 81.7102 28.5193 81.2436 28.762C80.7769 29.0047 80.2449 29.126 79.6476 29.126C78.9849 29.126 78.3782 28.958 77.8276 28.622C77.2769 28.2767 76.8382 27.8007 76.5116 27.194C76.1942 26.578 76.0356 25.8827 76.0356 25.108ZM82.3496 25.136C82.3496 24.604 82.2376 24.142 82.0136 23.75C81.7989 23.358 81.5142 23.0593 81.1596 22.854C80.8049 22.6487 80.4222 22.546 80.0116 22.546C79.6009 22.546 79.2182 22.6487 78.8636 22.854C78.5089 23.05 78.2196 23.344 77.9956 23.736C77.7809 24.1187 77.6736 24.576 77.6736 25.108C77.6736 25.64 77.7809 26.1067 77.9956 26.508C78.2196 26.9093 78.5089 27.2173 78.8636 27.432C79.2276 27.6373 79.6102 27.74 80.0116 27.74C80.4222 27.74 80.8049 27.6373 81.1596 27.432C81.5142 27.2267 81.7989 26.928 82.0136 26.536C82.2376 26.1347 82.3496 25.668 82.3496 25.136ZM85.5239 25.108C85.5239 24.3333 85.6825 23.6473 85.9999 23.05C86.3265 22.4527 86.7652 21.9907 87.3159 21.664C87.8759 21.328 88.4965 21.16 89.1779 21.16C89.6819 21.16 90.1765 21.272 90.6619 21.496C91.1565 21.7107 91.5485 22 91.8379 22.364V18.64H93.4479V29H91.8379V27.838C91.5765 28.2113 91.2125 28.5193 90.7459 28.762C90.2885 29.0047 89.7612 29.126 89.1639 29.126C88.4919 29.126 87.8759 28.958 87.3159 28.622C86.7652 28.2767 86.3265 27.8007 85.9999 27.194C85.6825 26.578 85.5239 25.8827 85.5239 25.108ZM91.8379 25.136C91.8379 24.604 91.7259 24.142 91.5019 23.75C91.2872 23.358 91.0025 23.0593 90.6479 22.854C90.2932 22.6487 89.9105 22.546 89.4999 22.546C89.0892 22.546 88.7065 22.6487 88.3519 22.854C87.9972 23.05 87.7079 23.344 87.4839 23.736C87.2692 24.1187 87.1619 24.576 87.1619 25.108C87.1619 25.64 87.2692 26.1067 87.4839 26.508C87.7079 26.9093 87.9972 27.2173 88.3519 27.432C88.7159 27.6373 89.0985 27.74 89.4999 27.74C89.9105 27.74 90.2932 27.6373 90.6479 27.432C91.0025 27.2267 91.2872 26.928 91.5019 26.536C91.7259 26.1347 91.8379 25.668 91.8379 25.136Z" fill="#18181B"/>
<path d="M103.4 32H118.6M111 16V28M111 28L115.434 24.5M111 28L106.567 24.5" stroke="#18181B" stroke-width="1.5" stroke-linecap="round" stroke-linejoin="round"/>
</g>
<defs>
<filter id="filter0_dd_1_1573" x="0.400391" y="0" width="141.2" height="50" filterUnits="userSpaceOnUse" color-interpolation-filters="sRGB">
<feFlood flood-opacity="0" result="BackgroundImageFix"/>
<feColorMatrix in="SourceAlpha" type="matrix" values="0 0 0 0 0 0 0 0 0 0 0 0 0 0 0 0 0 0 127 0" result="hardAlpha"/>
<feOffset dy="1"/>
<feGaussianBlur stdDeviation="1.5"/>
<feComposite in2="hardAlpha" operator="out"/>
<feColorMatrix type="matrix" values="0 0 0 0 0 0 0 0 0 0 0 0 0 0 0 0 0 0 0.1 0"/>
<feBlend mode="normal" in2="BackgroundImageFix" result="effect1_dropShadow_1_1573"/>
<feColorMatrix in="SourceAlpha" type="matrix" values="0 0 0 0 0 0 0 0 0 0 0 0 0 0 0 0 0 0 127 0" result="hardAlpha"/>
<feMorphology radius="1" operator="erode" in="SourceAlpha" result="effect2_dropShadow_1_1573"/>
<feOffset dy="1"/>
<feGaussianBlur stdDeviation="1"/>
<feComposite in2="hardAlpha" operator="out"/>
<feColorMatrix type="matrix" values="0 0 0 0 0 0 0 0 0 0 0 0 0 0 0 0 0 0 0.1 0"/>
<feBlend mode="normal" in2="effect1_dropShadow_1_1573" result="effect2_dropShadow_1_1573"/>
<feBlend mode="normal" in="SourceGraphic" in2="effect2_dropShadow_1_1573" result="shape"/>
</filter>
<linearGradient id="paint0_linear_1_1573" x1="71.0004" y1="2" x2="71.0004" y2="46" gradientUnits="userSpaceOnUse">
<stop stop-color="#FAFAFA"/>
<stop offset="1" stop-color="#FAFAFA" stop-opacity="0.8"/>
</linearGradient>
</defs>
</svg>
