<svg width="560" height="496" viewBox="0 0 560 496" fill="none" xmlns="http://www.w3.org/2000/svg">
<g opacity="0.5">
<g opacity="0.7" filter="url(#filter0_f_1_280)">
<circle cx="180" cy="180" r="180" transform="matrix(-1 0 0 1 460 220)" fill="#4F46E5" fill-opacity="0.6"/>
</g>
</g>
<path d="M108.863 415.514L108.871 415.652L109.217 416.751L107.73 427.163L106.208 400.889L107.37 389.99L108.863 415.514ZM228.822 238.079L227.942 238.822L211.259 242.758L211.736 242.569L232.82 234.398L245.497 231.633L228.822 238.079ZM314.796 230.6L313.295 230.716L308.395 229.261L327.336 232.84L328.267 233.161L314.796 230.6ZM248.015 567.803L248.795 568.13L280.132 573.289L265.78 574.766L235.785 569.84L248.015 567.803ZM230.994 569.055L198.365 555.201L209.405 551.337L209.499 551.403L246.118 566.995L232.387 569.28L230.994 569.055ZM138.714 503.257L144.299 493.769L173.154 525.267L164.56 531.903L163.709 531.299L140.742 506.24L138.714 503.257ZM122.479 457.104L143.534 492.917L138.079 502.173L119.239 470.092L119.073 469.561L122.479 457.104ZM121.447 455.293L121.483 455.409L121.729 455.824L118.467 467.64L108.199 435.203L108.055 432.693L109.989 419.167L121.447 455.293ZM171.906 268.493L169.525 270.247L172.202 267.999L171.906 268.493ZM259.185 228.664L260.809 228.548L284.418 233.714L262.432 242.256L262.086 242.547L232.798 238.916L259.185 228.664ZM411.066 292.832L395.379 275.849L398.143 270.072L418.469 292.024L411.066 292.832ZM444.77 346.173L430.151 333.767L430.122 333.44L423.599 314.275L435.577 319.688L435.844 320.132L441.523 336.7L444.77 346.173ZM451.632 367.223L453.912 392.296L450.246 378.493L450.441 377.482L450.47 377.329L448.745 358.302L451.632 367.223ZM449.618 429.659L445.13 404.76L445.448 404.178L449.777 381.011L454.503 398.837L454.778 401.857L449.618 429.659ZM357.259 554.561L337.07 563.365L348.702 556.409L349.777 556.299L349.943 556.278L366.834 548.922L357.259 554.561ZM291.879 572.067L310.445 560.309L311 560.403L346.082 556.685L329.082 566.85L325.301 568.494L291.879 572.067ZM121.166 356.265L123.439 394.224L123.446 394.363L123.547 394.661L110.927 413.069L108.798 376.747L109.094 375.459L121.166 356.265ZM127.934 323.028L121.043 353.471L121.007 353.624L121.058 354.424L109.83 372.229L116.772 341.691L127.934 323.028ZM188.913 285.265L188.826 285.418L188.776 285.629L157.734 296.586L174.308 268.77L175.023 268.173L203.856 260.017L188.913 285.265ZM242.135 260.068L229.746 281.219L191.575 285.098L206.649 259.617L206.836 259.464L242.135 260.068ZM315.293 250.631L314.889 250.791L289.707 234.681L314.673 232.833L315.257 232.95L333.051 249.277L315.293 250.631ZM374.808 261.428L355.982 253.104L355.426 252.995L345.88 239.367L371.597 250.718L371.9 250.943L374.808 261.428ZM394.491 275.173L376.474 262.163L376.113 262.003L373.328 251.969L397.313 269.25L394.491 275.173ZM434.134 461.106L412.776 480.584L413.894 444.328L413.974 444.299L431.746 428.204L434.365 460.677L434.134 461.106ZM401.173 514.855L370.507 528.148L383.004 496.323L411.058 484.317L401.628 514.44L401.173 514.855ZM136.622 435.698L136.65 435.778L123.114 453.255L111.05 415.245L111.028 414.859L123.958 395.971L136.622 435.698ZM146.579 333.454L146.55 333.614L146.565 333.876L123.677 351.79L131.484 317.294L132.04 316.377L154.127 299.759L146.579 333.454ZM181.683 317.862L181.654 317.985L149.061 332.472L156.702 298.325L156.847 298.078L188.494 286.902L181.683 317.862ZM448.247 377.22L443.723 401.435L428.21 373.335L428.231 373.298L431.601 355.792L448.197 376.704L448.247 377.22ZM419.371 389.444L419.392 389.422L427.582 374.477L443.399 403.138L443.348 403.421L431.998 424.318L419.371 389.444ZM431.277 425.65L413.606 441.643L405.871 401.544L418.483 390.237L431.298 425.613L431.277 425.65ZM411.564 481.698L383.618 493.703L389.693 454.609L412.776 444.808L411.643 481.618L411.564 481.698ZM368.97 528.81L332.914 532.543L349.055 499.75L381.763 496.468L369.107 528.752L368.97 528.81ZM349.38 554.109L312.761 557.98L331.521 534.879L331.666 534.908L367.549 531.19L350.022 553.826L349.38 554.109ZM191.597 509.572L227.891 535.526L210.559 549.445L175.687 524.554L191.597 509.572ZM160.318 475.622L190.767 508.838L174.842 523.834L145.605 491.95L160.318 475.622ZM137.242 436.804L159.603 474.771L144.963 491.011L123.525 454.529L137.242 436.804ZM149.018 373.182L125.546 392.602L123.222 353.813L123.294 353.5L146.644 335.193L149.018 373.182ZM274.259 286.327L270.506 304.212L226.318 307.515L231.744 282.325L274.259 286.327ZM274.569 285.25L232.271 281.27L244.545 260.33L283.191 270.349L274.569 285.25ZM375.161 263.982L372.434 284.937L362.671 280.615L362.541 280.594L356.502 255.753L375.161 263.982ZM391.382 301.258L383.567 292.781L394.189 277.814L408.749 293.545L391.382 301.258ZM397.803 311.764L392.031 302.182L409.471 294.411L420.352 312.375L397.803 311.764ZM401.577 322.839L398.229 312.885L420.994 313.46L427.474 332.414L401.577 322.839ZM429.725 353.886L426.456 371.123L400.56 343.677L402.299 334.917L429.725 353.849V353.886ZM389.816 452.149L388.625 408.762L404.853 402.024L412.646 442.458L389.816 452.149ZM382.449 494.169L349.928 497.429L361.798 457.33L388.56 454.754L382.449 494.169ZM331.644 532.652L292.954 526.155L312.948 493.587L347.915 499.582L331.644 532.652ZM149.371 374.317L161.883 413.281L138.397 434.003L125.632 393.962L149.371 374.317ZM184.28 354.599L195.659 389.728L163.745 411.862L151.262 372.993L184.28 354.599ZM226.261 338.104L235.612 366.779L197.586 388.527L186.286 353.653L226.261 338.104ZM331.99 282.98L299.852 259.049L315.618 252.828L340.021 279.815L331.99 282.98ZM418.144 387.116L395.935 352.176L400.055 344.754L426.197 372.432L418.144 387.116ZM362.289 455.053L368.783 410.741L387.543 409.017L388.734 452.506L362.289 455.053ZM348.774 497.472L314.016 491.55L332.135 452.229L360.694 457.214L348.774 497.472ZM291.821 525.907L253.398 509.478L277.166 478.292L311.88 493.23L291.821 525.907ZM251.941 511.239L290.45 527.734L270.146 551.359L230.59 534.5L251.941 511.239ZM162.41 414.285L184.302 451.327L161.205 473.148L138.801 435.102L162.41 414.285ZM196.179 390.71L215.95 424.093L185.976 449.828L164.163 412.909L196.179 390.71ZM236.11 367.761L252.302 394.996L217.667 422.667L198.026 389.546L236.11 367.761ZM272.195 326.055L278.804 346.144L237.596 365.746L228.324 337.442L272.195 326.055ZM319.551 298.522L317.74 307.399L272.75 304.226L276.423 286.727L319.551 298.522ZM324.133 290.067L319.911 297.467L276.856 285.701L285.298 271.113L324.133 290.067ZM324.775 289.15L286.114 270.291L298.676 259.551L331.096 283.693L324.775 289.15ZM363.609 314.522L362.815 283.104L371.979 287.135L363.609 314.522ZM367.375 319.07L399.449 323.45L400.235 332.552L367.375 319.07ZM388.871 358.528L395.148 352.969L417.502 388.149L405.156 399.216L388.871 358.528ZM361.177 455.053L332.957 450.149L347.684 407.089L367.686 410.661L361.177 455.053ZM312.934 491.273L278.458 476.466L302.753 439.649L331.074 451.902L312.934 491.273ZM252.403 508.961L217.09 483.713L244.285 454.863L276.207 477.74L252.403 508.961ZM215.553 485.307L250.974 510.664L229.558 533.998L193.184 508.015L215.553 485.307ZM184.995 452.186L214.723 484.579L192.347 507.295L161.847 474.058L184.995 452.186ZM216.635 424.959L243.448 454.143L216.253 482.986L186.625 450.723L216.635 424.959ZM252.987 395.869L274.893 419.691L244.949 452.513L218.323 423.562L252.987 395.869ZM279.288 347.134L290.674 366.211L254.062 393.642L238.051 366.757L279.288 347.134ZM359.02 314.202L326.745 290.373L332.755 285.178L359.02 314.202ZM360.016 313.649L333.772 284.654L341.378 281.619L360.016 313.649ZM361.235 313.554L342.561 281.459L351.263 280.768L361.235 313.554ZM364.525 315.271L372.939 287.746L381.395 293.836L364.525 315.271ZM365.333 316.043L382.218 294.578L389.361 302.298L365.333 316.043ZM366.105 316.872L390.061 303.179L395.386 311.983L366.105 316.872ZM395.949 313.016L399.102 322.293L366.834 317.876L395.949 313.016ZM367.541 320.336L400.286 333.775L398.669 342.127L367.541 320.336ZM379.851 362.333L387.904 359.059L404.247 399.878L388.365 406.528L379.851 362.333ZM331.904 449.85L303.915 437.765L326.788 398.153L346.623 406.79L331.904 449.85ZM291.352 367.085L306.721 383.783L276.373 418.039L254.719 394.523L291.352 367.085ZM318.678 319.368L321.99 329.373L280.839 345.271L274.345 325.64L318.678 319.368ZM367.253 321.485L398.366 343.255L394.455 350.306L367.253 321.485ZM369.461 363.439L378.783 362.624L387.305 406.812L368.948 408.493L369.461 363.439ZM358.414 361.569L368.371 363.396L367.859 408.442L348.283 404.971L358.414 361.569ZM322.466 330.377L328.159 339.908L292.463 364.916L281.315 346.275L322.466 330.377ZM324.075 328.667L320.914 319.208L358.984 318.553L324.075 328.667ZM386.901 357.08L379.252 360.23L365.499 322.751L386.901 357.08ZM366.531 322.322L393.799 351.208L387.832 356.498L366.531 322.322ZM328.83 340.781L336.522 349.142L308.179 382.11L293.134 365.797L328.83 340.781ZM329.992 338.671L324.587 329.671L359.669 319.513L329.992 338.671ZM369.338 361.22L364.323 322.751L378.163 360.449L369.338 361.22ZM337.958 347.439L330.67 339.552L360.42 320.343L337.958 347.439ZM363.169 322.388L368.22 361.111L358.796 359.416L363.169 322.388ZM348.37 354.955L362.13 321.798L357.728 359.044L348.37 354.955ZM347.417 354.38L338.78 348.174L361.228 321.1L347.417 354.38ZM326.874 395.665L309.009 382.837L337.359 349.855L346.486 356.432L326.874 395.665ZM347.237 404.644L327.827 396.218L347.461 356.949L357.353 361.293L347.237 404.644ZM302.955 437.226L277.202 418.767L307.558 384.504L325.814 397.63L302.955 437.226ZM358.464 317.454L320.633 318.102L319.904 308.854L358.464 317.454ZM322.004 298.245L326.023 291.217L358.414 315.126L322.004 298.245ZM358.24 316.268L319.919 307.719L321.643 299.3L358.24 316.268ZM277.484 475.935L245.786 453.248L275.73 420.411L301.786 439.111L277.484 475.935ZM362.49 313.896L352.468 280.95L361.704 282.667L362.49 313.896ZM317.667 308.505L318.439 318.277L274.107 324.556L272.678 305.325L317.667 308.505ZM376.178 264.681L393.373 277.065L382.709 292.075L373.48 285.41L376.178 264.681ZM270.47 305.318L271.935 324.985L228.129 336.35L226.188 308.628L270.47 305.318ZM311.058 558.162L271.387 551.585L291.547 528.141L330.273 534.668L311.246 558.14L311.058 558.162ZM427.943 333.775L429.602 352.445L402.537 333.731L402.544 333.702L401.714 324.068L427.921 333.724L427.943 333.775ZM355.239 255.193L361.358 280.368L351.552 278.52L351.501 278.527L336.349 251.642L355.217 255.185L355.239 255.193ZM334.934 251.373L350.289 278.622L341.248 279.335L341.125 279.386L317.011 252.719L334.869 251.365L334.934 251.373ZM224.009 308.97L225.972 337.027L186.128 352.532L183.884 318.407L224.009 308.97ZM181.726 319.157L183.985 353.507L151.139 371.807L148.765 333.818L181.726 319.157ZM249.401 565.984L211.663 549.94L228.865 536.152L268.255 552.96L249.617 566.02L249.401 565.984ZM287.867 234.82L313.634 251.278L297.63 257.543L297.529 257.63L265.174 243.558L287.47 234.849L287.867 234.82ZM263.709 244.133L296.605 258.416L283.79 269.366L245.548 259.442L263.565 244.191L263.709 244.133ZM229.486 282.354L223.995 307.835L184.078 317.236L190.89 286.283L229.486 282.354ZM251.176 566.275L269.453 553.469L269.496 553.484L308.807 560.032L289.39 572.336L288.545 572.423L251.176 566.275ZM382.543 539.659L352.064 552.938L369.071 531.03L369.36 531.001L399.413 518.027L384.556 537.818L382.543 539.659ZM403.244 512.956L412.393 483.75L412.769 483.589L433.766 464.431L427.156 490.16L426.226 491.892L403.244 512.956ZM435.324 458.894L432.777 427.272L433.023 427.047L444.293 406.31L449.048 432.715L448.832 433.872L435.324 458.894ZM445.679 348.829L448.017 374.703L431.875 354.366L431.947 354.002L430.288 335.339L445.469 348.218L445.679 348.829ZM230.619 239.767L260.931 243.522L243.015 258.693L242.871 258.816L242.777 258.969L208.135 258.372L229.955 240.022L230.619 239.767ZM154.559 282.769L156.183 281.416L170.455 270.931L154.632 297.489L154.495 298.093L133.54 313.86L149.682 286.858L154.559 282.769ZM196.576 554.444L188.473 548.965L165.498 532.572L173.977 526.024L208.301 550.551L196.85 554.561L196.576 554.444ZM408.418 515.91L392.262 530.739L388.993 533.736L401.455 517.147L402.378 516.747L419.32 501.219L408.418 515.91ZM442.554 461.572L435.332 474.982L429.328 486.129L435.245 463.078L435.887 462.496L447.028 441.854L442.554 461.572ZM419.428 293.057L434.56 318.014L423.108 312.834L423.022 312.572L411.722 293.872L419.407 293.043L419.428 293.057ZM343.355 238.254L343.932 238.509L353.875 252.704L334.992 249.132L334.53 249.168L317.307 233.335L343.355 238.254ZM297.579 227.216L310.17 230.949L287.146 232.651L286.287 232.986L264.698 228.264L292.37 226.234L297.579 227.216ZM200.263 247.022L203.77 245.661L226.059 240.408L204.953 258.161L204.672 258.634L177.101 266.434L200.263 247.022ZM195.443 556.35L230.258 571.15L265.715 577L288.48 574.664L288.618 574.65H288.625L325.871 570.67L358.19 556.569C358.197 556.569 358.197 556.569 358.197 556.561L383.647 541.602L383.755 541.551L409.976 517.482L427.921 493.339L427.979 493.281L444.56 462.496C444.647 462.336 444.676 462.154 444.683 461.979L450.924 434.65L450.932 434.621L450.968 434.461V434.454L456.971 402.119L457 401.966L453.811 366.903C453.796 366.743 453.746 366.59 453.674 366.459L447.8 348.225L437.886 319.295L421.247 291.806L399.059 267.809L372.78 248.848L344.12 236.166H344.105L344.033 236.129L327.957 230.716L327.863 230.694C327.848 230.694 327.834 230.68 327.812 230.68L292.492 224L258.861 226.467L232.271 232.244L232.17 232.28C232.148 232.288 232.127 232.287 232.105 232.295L199.577 244.912L199.303 245.013V245.021L199.137 245.086L198.603 245.53L175.189 262.614C175.182 262.614 175.182 262.614 175.182 262.622L163.139 272.706L148.022 285.367L147.993 285.389L147.849 285.629L132.48 311.124L114.802 340.694L114.708 340.847L106.619 376.405L106.583 376.558L106.59 376.667L104 400.831L106.013 435.473L106.02 435.611L117.183 470.885L136.845 504.428L139.768 508.736L161.357 532.31L187.224 550.792L195.443 556.35Z" fill="url(#paint0_linear_1_280)"/>
<g filter="url(#filter1_d_1_280)">
<ellipse cx="280" cy="400" rx="118.704" ry="243.335" transform="rotate(-45 280 400)" stroke="url(#paint1_linear_1_280)" stroke-width="2" shape-rendering="crispEdges"/>
</g>
<g filter="url(#filter2_d_1_280)">
<ellipse cx="287.941" cy="435.099" rx="86.5749" ry="216.161" transform="rotate(-105 287.941 435.099)" stroke="url(#paint2_linear_1_280)" stroke-width="2" shape-rendering="crispEdges"/>
</g>
<defs>
<filter id="filter0_f_1_280" x="-300" y="-180" width="1160" height="1160" filterUnits="userSpaceOnUse" color-interpolation-filters="sRGB">
<feFlood flood-opacity="0" result="BackgroundImageFix"/>
<feBlend mode="normal" in="SourceGraphic" in2="BackgroundImageFix" result="shape"/>
<feGaussianBlur stdDeviation="200" result="effect1_foregroundBlur_1_280"/>
</filter>
<filter id="filter1_d_1_280" x="79.5127" y="199.513" width="400.975" height="400.975" filterUnits="userSpaceOnUse" color-interpolation-filters="sRGB">
<feFlood flood-opacity="0" result="BackgroundImageFix"/>
<feColorMatrix in="SourceAlpha" type="matrix" values="0 0 0 0 0 0 0 0 0 0 0 0 0 0 0 0 0 0 127 0" result="hardAlpha"/>
<feOffset/>
<feGaussianBlur stdDeviation="4"/>
<feComposite in2="hardAlpha" operator="out"/>
<feColorMatrix type="matrix" values="0 0 0 0 0.654902 0 0 0 0 0.545098 0 0 0 0 0.980392 0 0 0 0.8 0"/>
<feBlend mode="normal" in2="BackgroundImageFix" result="effect1_dropShadow_1_280"/>
<feBlend mode="normal" in="SourceGraphic" in2="effect1_dropShadow_1_280" result="shape"/>
</filter>
<filter id="filter2_d_1_280" x="68.9287" y="325.475" width="438.025" height="219.249" filterUnits="userSpaceOnUse" color-interpolation-filters="sRGB">
<feFlood flood-opacity="0" result="BackgroundImageFix"/>
<feColorMatrix in="SourceAlpha" type="matrix" values="0 0 0 0 0 0 0 0 0 0 0 0 0 0 0 0 0 0 127 0" result="hardAlpha"/>
<feOffset/>
<feGaussianBlur stdDeviation="4"/>
<feComposite in2="hardAlpha" operator="out"/>
<feColorMatrix type="matrix" values="0 0 0 0 0.654902 0 0 0 0 0.545098 0 0 0 0 0.980392 0 0 0 0.8 0"/>
<feBlend mode="normal" in2="BackgroundImageFix" result="effect1_dropShadow_1_280"/>
<feBlend mode="normal" in="SourceGraphic" in2="effect1_dropShadow_1_280" result="shape"/>
</filter>
<linearGradient id="paint0_linear_1_280" x1="280.5" y1="224" x2="280.5" y2="577" gradientUnits="userSpaceOnUse">
<stop stop-color="#A78BFA" stop-opacity="0.8"/>
<stop offset="1" stop-color="#4F46E5" stop-opacity="0"/>
</linearGradient>
<linearGradient id="paint1_linear_1_280" x1="345.407" y1="218.627" x2="211.057" y2="280.145" gradientUnits="userSpaceOnUse">
<stop stop-color="#09090B"/>
<stop offset="1" stop-color="#A78BFA" stop-opacity="0"/>
</linearGradient>
<linearGradient id="paint2_linear_1_280" x1="369.488" y1="343.648" x2="233.085" y2="331.892" gradientUnits="userSpaceOnUse">
<stop stop-color="#09090B" stop-opacity="0.7"/>
<stop offset="0.395" stop-color="#A78BFA" stop-opacity="0.1"/>
<stop offset="1" stop-color="#A78BFA" stop-opacity="0"/>
</linearGradient>
</defs>
</svg>
