<svg width="146" height="42" viewBox="0 0 146 42" fill="none" xmlns="http://www.w3.org/2000/svg">
<g filter="url(#filter0_dd_1_967)">
<path d="M3.7998 8C3.7998 4.68629 6.4861 2 9.7998 2H137C140.314 2 143 4.68629 143 8V32C143 35.3137 140.314 38 137 38H9.7998C6.48609 38 3.7998 35.3137 3.7998 32V8Z" fill="url(#paint0_linear_1_967)" shape-rendering="crispEdges"/>
<path d="M27.8918 18.07C27.6398 17.5847 27.2898 17.2207 26.8418 16.978C26.3938 16.726 25.8758 16.6 25.2878 16.6C24.6438 16.6 24.0698 16.7447 23.5658 17.034C23.0618 17.3233 22.6651 17.734 22.3758 18.266C22.0958 18.798 21.9558 19.414 21.9558 20.114C21.9558 20.814 22.0958 21.4347 22.3758 21.976C22.6651 22.508 23.0618 22.9187 23.5658 23.208C24.0698 23.4973 24.6438 23.642 25.2878 23.642C26.1558 23.642 26.8605 23.3993 27.4018 22.914C27.9431 22.4287 28.2745 21.7707 28.3958 20.94H24.7418V19.666H30.1038V20.912C30.0011 21.668 29.7305 22.3633 29.2918 22.998C28.8625 23.6327 28.2978 24.1413 27.5978 24.524C26.9071 24.8973 26.1371 25.084 25.2878 25.084C24.3731 25.084 23.5378 24.874 22.7818 24.454C22.0258 24.0247 21.4238 23.432 20.9758 22.676C20.5371 21.92 20.3178 21.066 20.3178 20.114C20.3178 19.162 20.5371 18.308 20.9758 17.552C21.4238 16.796 22.0258 16.208 22.7818 15.788C23.5471 15.3587 24.3825 15.144 25.2878 15.144C26.3238 15.144 27.2431 15.4007 28.0458 15.914C28.8578 16.418 29.4458 17.1367 29.8098 18.07H27.8918ZM38.7479 20.954C38.7479 21.2433 38.7293 21.5047 38.6919 21.738H32.7979C32.8446 22.354 33.0733 22.8487 33.4839 23.222C33.8946 23.5953 34.3986 23.782 34.9959 23.782C35.8546 23.782 36.4613 23.4227 36.8159 22.704H38.5379C38.3046 23.4133 37.8799 23.9967 37.2639 24.454C36.6573 24.902 35.9013 25.126 34.9959 25.126C34.2586 25.126 33.5959 24.9627 33.0079 24.636C32.4293 24.3 31.9719 23.8333 31.6359 23.236C31.3093 22.6293 31.1459 21.9293 31.1459 21.136C31.1459 20.3427 31.3046 19.6473 31.6219 19.05C31.9486 18.4433 32.4013 17.9767 32.9799 17.65C33.5679 17.3233 34.2399 17.16 34.9959 17.16C35.7239 17.16 36.3726 17.3187 36.9419 17.636C37.5113 17.9533 37.9546 18.4013 38.2719 18.98C38.5893 19.5493 38.7479 20.2073 38.7479 20.954ZM37.0819 20.45C37.0726 19.862 36.8626 19.3907 36.4519 19.036C36.0413 18.6813 35.5326 18.504 34.9259 18.504C34.3753 18.504 33.9039 18.6813 33.5119 19.036C33.1199 19.3813 32.8866 19.8527 32.8119 20.45H37.0819ZM42.1806 18.588V22.858C42.1806 23.1473 42.2459 23.3573 42.3766 23.488C42.5166 23.6093 42.7499 23.67 43.0766 23.67H44.0566V25H42.7966C42.0779 25 41.5272 24.832 41.1446 24.496C40.7619 24.16 40.5706 23.614 40.5706 22.858V18.588H39.6606V17.286H40.5706V15.368H42.1806V17.286H44.0566V18.588H42.1806ZM51.0263 18.588V22.858C51.0263 23.1473 51.0916 23.3573 51.2223 23.488C51.3623 23.6093 51.5956 23.67 51.9223 23.67H52.9023V25H51.6423C50.9236 25 50.3729 24.832 49.9903 24.496C49.6076 24.16 49.4163 23.614 49.4163 22.858V18.588H48.5063V17.286H49.4163V15.368H51.0263V17.286H52.9023V18.588H51.0263ZM58.3632 17.16C58.9512 17.16 59.4739 17.286 59.9312 17.538C60.3979 17.79 60.7619 18.1633 61.0232 18.658C61.2939 19.1527 61.4292 19.75 61.4292 20.45V25H59.8472V20.688C59.8472 19.9973 59.6746 19.47 59.3292 19.106C58.9839 18.7327 58.5126 18.546 57.9152 18.546C57.3179 18.546 56.8419 18.7327 56.4872 19.106C56.1419 19.47 55.9692 19.9973 55.9692 20.688V25H54.3732V14.64H55.9692V18.182C56.2399 17.8553 56.5806 17.6033 56.9912 17.426C57.4112 17.2487 57.8686 17.16 58.3632 17.16ZM70.535 20.954C70.535 21.2433 70.5164 21.5047 70.479 21.738H64.585C64.6317 22.354 64.8604 22.8487 65.271 23.222C65.6817 23.5953 66.1857 23.782 66.783 23.782C67.6417 23.782 68.2484 23.4227 68.603 22.704H70.325C70.0917 23.4133 69.667 23.9967 69.051 24.454C68.4444 24.902 67.6884 25.126 66.783 25.126C66.0457 25.126 65.383 24.9627 64.795 24.636C64.2164 24.3 63.759 23.8333 63.423 23.236C63.0964 22.6293 62.933 21.9293 62.933 21.136C62.933 20.3427 63.0917 19.6473 63.409 19.05C63.7357 18.4433 64.1884 17.9767 64.767 17.65C65.355 17.3233 66.027 17.16 66.783 17.16C67.511 17.16 68.1597 17.3187 68.729 17.636C69.2984 17.9533 69.7417 18.4013 70.059 18.98C70.3764 19.5493 70.535 20.2073 70.535 20.954ZM68.869 20.45C68.8597 19.862 68.6497 19.3907 68.239 19.036C67.8284 18.6813 67.3197 18.504 66.713 18.504C66.1624 18.504 65.691 18.6813 65.299 19.036C64.907 19.3813 64.6737 19.8527 64.599 20.45H68.869ZM81.6084 23.012H77.5344L76.8344 25H75.1684L78.6544 15.256H80.5024L83.9884 25H82.3084L81.6084 23.012ZM81.1604 21.71L79.5784 17.188L77.9824 21.71H81.1604ZM87.1001 18.42C87.3708 18.0653 87.7394 17.7667 88.2061 17.524C88.6728 17.2813 89.2001 17.16 89.7881 17.16C90.4601 17.16 91.0714 17.328 91.6221 17.664C92.1821 17.9907 92.6208 18.4527 92.9381 19.05C93.2554 19.6473 93.4141 20.3333 93.4141 21.108C93.4141 21.8827 93.2554 22.578 92.9381 23.194C92.6208 23.8007 92.1821 24.2767 91.6221 24.622C91.0714 24.958 90.4601 25.126 89.7881 25.126C89.2001 25.126 88.6774 25.0093 88.2201 24.776C87.7628 24.5333 87.3894 24.2347 87.1001 23.88V28.668H85.5041V17.286H87.1001V18.42ZM91.7901 21.108C91.7901 20.576 91.6781 20.1187 91.4541 19.736C91.2394 19.344 90.9501 19.05 90.5861 18.854C90.2314 18.6487 89.8488 18.546 89.4381 18.546C89.0368 18.546 88.6541 18.6487 88.2901 18.854C87.9354 19.0593 87.6461 19.358 87.4221 19.75C87.2074 20.142 87.1001 20.604 87.1001 21.136C87.1001 21.668 87.2074 22.1347 87.4221 22.536C87.6461 22.928 87.9354 23.2267 88.2901 23.432C88.6541 23.6373 89.0368 23.74 89.4381 23.74C89.8488 23.74 90.2314 23.6373 90.5861 23.432C90.9501 23.2173 91.2394 22.9093 91.4541 22.508C91.6781 22.1067 91.7901 21.64 91.7901 21.108ZM96.5884 18.42C96.859 18.0653 97.2277 17.7667 97.6944 17.524C98.161 17.2813 98.6884 17.16 99.2764 17.16C99.9484 17.16 100.56 17.328 101.11 17.664C101.67 17.9907 102.109 18.4527 102.426 19.05C102.744 19.6473 102.902 20.3333 102.902 21.108C102.902 21.8827 102.744 22.578 102.426 23.194C102.109 23.8007 101.67 24.2767 101.11 24.622C100.56 24.958 99.9484 25.126 99.2764 25.126C98.6884 25.126 98.1657 25.0093 97.7084 24.776C97.251 24.5333 96.8777 24.2347 96.5884 23.88V28.668H94.9924V17.286H96.5884V18.42ZM101.278 21.108C101.278 20.576 101.166 20.1187 100.942 19.736C100.728 19.344 100.438 19.05 100.074 18.854C99.7197 18.6487 99.337 18.546 98.9264 18.546C98.525 18.546 98.1424 18.6487 97.7784 18.854C97.4237 19.0593 97.1344 19.358 96.9104 19.75C96.6957 20.142 96.5884 20.604 96.5884 21.136C96.5884 21.668 96.6957 22.1347 96.9104 22.536C97.1344 22.928 97.4237 23.2267 97.7784 23.432C98.1424 23.6373 98.525 23.74 98.9264 23.74C99.337 23.74 99.7197 23.6373 100.074 23.432C100.438 23.2173 100.728 22.9093 100.942 22.508C101.166 22.1067 101.278 21.64 101.278 21.108Z" fill="#18181B"/>
<path d="M111.8 28H127M119.4 12V24M119.4 24L123.833 20.5M119.4 24L114.966 20.5" stroke="#18181B" stroke-width="1.5" stroke-linecap="round" stroke-linejoin="round"/>
</g>
<defs>
<filter id="filter0_dd_1_967" x="0.799805" y="0" width="145.2" height="42" filterUnits="userSpaceOnUse" color-interpolation-filters="sRGB">
<feFlood flood-opacity="0" result="BackgroundImageFix"/>
<feColorMatrix in="SourceAlpha" type="matrix" values="0 0 0 0 0 0 0 0 0 0 0 0 0 0 0 0 0 0 127 0" result="hardAlpha"/>
<feOffset dy="1"/>
<feGaussianBlur stdDeviation="1.5"/>
<feComposite in2="hardAlpha" operator="out"/>
<feColorMatrix type="matrix" values="0 0 0 0 0 0 0 0 0 0 0 0 0 0 0 0 0 0 0.1 0"/>
<feBlend mode="normal" in2="BackgroundImageFix" result="effect1_dropShadow_1_967"/>
<feColorMatrix in="SourceAlpha" type="matrix" values="0 0 0 0 0 0 0 0 0 0 0 0 0 0 0 0 0 0 127 0" result="hardAlpha"/>
<feMorphology radius="1" operator="erode" in="SourceAlpha" result="effect2_dropShadow_1_967"/>
<feOffset dy="1"/>
<feGaussianBlur stdDeviation="1"/>
<feComposite in2="hardAlpha" operator="out"/>
<feColorMatrix type="matrix" values="0 0 0 0 0 0 0 0 0 0 0 0 0 0 0 0 0 0 0.1 0"/>
<feBlend mode="normal" in2="effect1_dropShadow_1_967" result="effect2_dropShadow_1_967"/>
<feBlend mode="normal" in="SourceGraphic" in2="effect2_dropShadow_1_967" result="shape"/>
</filter>
<linearGradient id="paint0_linear_1_967" x1="73.3998" y1="2" x2="73.3998" y2="38" gradientUnits="userSpaceOnUse">
<stop stop-color="#FAFAFA"/>
<stop offset="1" stop-color="#FAFAFA" stop-opacity="0.8"/>
</linearGradient>
</defs>
</svg>
