<svg width="560" height="560" viewBox="0 0 560 560" fill="none" xmlns="http://www.w3.org/2000/svg">
<path d="M256.5 388.5C256.5 382.149 261.649 377 268 377H500C506.351 377 511.5 382.149 511.5 388.5V396.5C511.5 402.851 506.351 408 500 408H268C261.649 408 256.5 402.851 256.5 396.5V388.5Z" fill="url(#paint0_linear_1_353)"/>
<path d="M256.5 388.5C256.5 382.149 261.649 377 268 377H500C506.351 377 511.5 382.149 511.5 388.5V396.5C511.5 402.851 506.351 408 500 408H268C261.649 408 256.5 402.851 256.5 396.5V388.5Z" stroke="url(#paint1_linear_1_353)"/>
<path d="M268.959 396.5V387.773H270.276V395.366H274.23V396.5H268.959ZM278.451 396.632C277.806 396.632 277.251 396.494 276.785 396.219C276.322 395.94 275.964 395.55 275.711 395.047C275.461 394.541 275.336 393.949 275.336 393.27C275.336 392.599 275.461 392.009 275.711 391.497C275.964 390.986 276.316 390.587 276.768 390.3C277.222 390.013 277.754 389.869 278.362 389.869C278.731 389.869 279.089 389.93 279.435 390.053C279.782 390.175 280.093 390.366 280.369 390.628C280.644 390.889 280.862 391.229 281.021 391.646C281.18 392.061 281.259 392.565 281.259 393.159V393.611H276.056V392.656H280.011C280.011 392.321 279.942 392.024 279.806 391.766C279.67 391.504 279.478 391.298 279.231 391.148C278.987 390.997 278.7 390.922 278.37 390.922C278.012 390.922 277.7 391.01 277.433 391.186C277.168 391.359 276.964 391.587 276.819 391.868C276.677 392.146 276.606 392.449 276.606 392.776V393.521C276.606 393.959 276.683 394.331 276.836 394.638C276.992 394.945 277.21 395.179 277.488 395.341C277.766 395.5 278.092 395.58 278.464 395.58C278.705 395.58 278.925 395.545 279.124 395.477C279.323 395.406 279.495 395.301 279.64 395.162C279.785 395.023 279.896 394.851 279.972 394.646L281.178 394.864C281.082 395.219 280.908 395.53 280.658 395.797C280.411 396.061 280.1 396.267 279.725 396.415C279.353 396.56 278.928 396.632 278.451 396.632ZM285.728 389.955V390.977H282.153V389.955H285.728ZM283.112 388.386H284.386V394.578C284.386 394.825 284.423 395.011 284.497 395.136C284.571 395.259 284.666 395.342 284.782 395.388C284.902 395.43 285.031 395.452 285.17 395.452C285.272 395.452 285.362 395.445 285.439 395.43C285.515 395.416 285.575 395.405 285.618 395.396L285.848 396.449C285.774 396.477 285.669 396.506 285.532 396.534C285.396 396.565 285.225 396.582 285.021 396.585C284.686 396.591 284.373 396.531 284.083 396.406C283.794 396.281 283.559 396.088 283.38 395.827C283.201 395.565 283.112 395.237 283.112 394.842V388.386ZM290.314 396.5V389.955H291.537V391.02H291.618C291.754 390.659 291.977 390.378 292.287 390.176C292.596 389.972 292.967 389.869 293.399 389.869C293.836 389.869 294.203 389.972 294.498 390.176C294.797 390.381 295.017 390.662 295.159 391.02H295.227C295.383 390.67 295.632 390.392 295.973 390.185C296.314 389.974 296.72 389.869 297.191 389.869C297.785 389.869 298.27 390.055 298.645 390.428C299.022 390.8 299.211 391.361 299.211 392.111V396.5H297.937V392.23C297.937 391.787 297.816 391.466 297.575 391.267C297.333 391.068 297.045 390.969 296.71 390.969C296.295 390.969 295.973 391.097 295.743 391.352C295.512 391.605 295.397 391.93 295.397 392.328V396.5H294.127V392.149C294.127 391.794 294.017 391.509 293.795 391.293C293.574 391.077 293.285 390.969 292.93 390.969C292.689 390.969 292.466 391.033 292.261 391.161C292.059 391.286 291.896 391.46 291.771 391.685C291.649 391.909 291.588 392.169 291.588 392.464V396.5H290.314ZM303.74 396.632C303.095 396.632 302.54 396.494 302.074 396.219C301.611 395.94 301.253 395.55 301 395.047C300.75 394.541 300.625 393.949 300.625 393.27C300.625 392.599 300.75 392.009 301 391.497C301.253 390.986 301.605 390.587 302.057 390.3C302.511 390.013 303.043 389.869 303.651 389.869C304.02 389.869 304.378 389.93 304.724 390.053C305.071 390.175 305.382 390.366 305.658 390.628C305.933 390.889 306.151 391.229 306.31 391.646C306.469 392.061 306.548 392.565 306.548 393.159V393.611H301.345V392.656H305.3C305.3 392.321 305.232 392.024 305.095 391.766C304.959 391.504 304.767 391.298 304.52 391.148C304.276 390.997 303.989 390.922 303.659 390.922C303.301 390.922 302.989 391.01 302.722 391.186C302.457 391.359 302.253 391.587 302.108 391.868C301.966 392.146 301.895 392.449 301.895 392.776V393.521C301.895 393.959 301.972 394.331 302.125 394.638C302.281 394.945 302.499 395.179 302.777 395.341C303.055 395.5 303.381 395.58 303.753 395.58C303.994 395.58 304.214 395.545 304.413 395.477C304.612 395.406 304.784 395.301 304.929 395.162C305.074 395.023 305.185 394.851 305.261 394.646L306.467 394.864C306.371 395.219 306.197 395.53 305.947 395.797C305.7 396.061 305.389 396.267 305.014 396.415C304.642 396.56 304.217 396.632 303.74 396.632ZM315.557 398.955V395.482H315.48C315.403 395.621 315.293 395.78 315.148 395.959C315.006 396.138 314.81 396.294 314.56 396.428C314.31 396.561 313.986 396.628 313.588 396.628C313.06 396.628 312.588 396.493 312.173 396.223C311.761 395.95 311.438 395.562 311.202 395.06C310.969 394.554 310.852 393.947 310.852 393.24C310.852 392.533 310.97 391.928 311.206 391.425C311.445 390.922 311.771 390.537 312.186 390.27C312.601 390.003 313.071 389.869 313.597 389.869C314.003 389.869 314.33 389.938 314.577 390.074C314.827 390.207 315.02 390.364 315.156 390.543C315.295 390.722 315.403 390.879 315.48 391.016H315.587V389.955H316.831V398.955H315.557ZM313.869 395.541C314.236 395.541 314.545 395.445 314.798 395.251C315.054 395.055 315.247 394.784 315.378 394.438C315.511 394.091 315.578 393.687 315.578 393.227C315.578 392.773 315.513 392.375 315.382 392.034C315.251 391.693 315.06 391.428 314.807 391.237C314.554 391.047 314.241 390.952 313.869 390.952C313.486 390.952 313.166 391.051 312.911 391.25C312.655 391.449 312.462 391.72 312.331 392.064C312.203 392.408 312.139 392.795 312.139 393.227C312.139 393.665 312.205 394.058 312.335 394.408C312.466 394.757 312.659 395.034 312.915 395.239C313.173 395.44 313.491 395.541 313.869 395.541ZM322.69 393.786V389.955H323.969V396.5H322.716V395.366H322.648C322.497 395.716 322.256 396.007 321.923 396.24C321.594 396.47 321.183 396.585 320.692 396.585C320.271 396.585 319.899 396.493 319.575 396.308C319.254 396.121 319.001 395.844 318.817 395.477C318.635 395.111 318.544 394.658 318.544 394.118V389.955H319.818V393.964C319.818 394.411 319.942 394.766 320.189 395.03C320.436 395.294 320.757 395.426 321.152 395.426C321.391 395.426 321.628 395.366 321.864 395.247C322.102 395.128 322.3 394.947 322.456 394.706C322.615 394.464 322.693 394.158 322.69 393.786ZM325.681 396.5V389.955H326.955V396.5H325.681ZM326.324 388.945C326.103 388.945 325.912 388.871 325.753 388.723C325.597 388.572 325.519 388.393 325.519 388.186C325.519 387.976 325.597 387.797 325.753 387.649C325.912 387.499 326.103 387.423 326.324 387.423C326.546 387.423 326.735 387.499 326.891 387.649C327.05 387.797 327.13 387.976 327.13 388.186C327.13 388.393 327.05 388.572 326.891 388.723C326.735 388.871 326.546 388.945 326.324 388.945ZM331.426 396.632C330.793 396.632 330.247 396.489 329.79 396.202C329.335 395.912 328.986 395.513 328.741 395.004C328.497 394.496 328.375 393.913 328.375 393.257C328.375 392.592 328.5 392.006 328.75 391.497C329 390.986 329.352 390.587 329.807 390.3C330.261 390.013 330.797 389.869 331.413 389.869C331.911 389.869 332.354 389.962 332.743 390.146C333.132 390.328 333.446 390.584 333.685 390.913C333.926 391.243 334.07 391.628 334.115 392.068H332.875C332.807 391.761 332.651 391.497 332.406 391.276C332.165 391.054 331.841 390.943 331.435 390.943C331.08 390.943 330.768 391.037 330.501 391.224C330.237 391.409 330.031 391.673 329.884 392.017C329.736 392.358 329.662 392.761 329.662 393.227C329.662 393.705 329.734 394.116 329.879 394.463C330.024 394.81 330.229 395.078 330.493 395.268C330.76 395.459 331.074 395.554 331.435 395.554C331.676 395.554 331.895 395.51 332.091 395.422C332.29 395.331 332.456 395.202 332.589 395.034C332.726 394.866 332.821 394.665 332.875 394.429H334.115C334.07 394.852 333.932 395.23 333.702 395.562C333.472 395.895 333.163 396.156 332.777 396.347C332.393 396.537 331.943 396.632 331.426 396.632ZM336.65 394.28L336.641 392.724H336.863L339.471 389.955H340.996L338.022 393.108H337.821L336.65 394.28ZM335.478 396.5V387.773H336.752V396.5H335.478ZM339.611 396.5L337.267 393.389L338.145 392.499L341.175 396.5H339.611ZM343.431 387.773V396.5H342.157V387.773H343.431ZM345.951 398.955C345.761 398.955 345.587 398.939 345.431 398.908C345.275 398.879 345.158 398.848 345.082 398.814L345.388 397.77C345.621 397.832 345.829 397.859 346.011 397.851C346.192 397.842 346.353 397.774 346.492 397.646C346.634 397.518 346.759 397.31 346.867 397.02L347.025 396.585L344.63 389.955H345.994L347.651 395.034H347.719L349.377 389.955H350.745L348.048 397.374C347.923 397.714 347.763 398.003 347.57 398.239C347.377 398.477 347.147 398.656 346.88 398.776C346.613 398.895 346.303 398.955 345.951 398.955ZM355.118 389.955H356.392V396.926C356.392 397.364 356.313 397.733 356.154 398.034C355.998 398.335 355.765 398.564 355.455 398.72C355.148 398.876 354.769 398.955 354.317 398.955C354.272 398.955 354.229 398.955 354.189 398.955C354.147 398.955 354.103 398.953 354.057 398.95V397.855C354.097 397.855 354.132 397.855 354.164 397.855C354.192 397.855 354.225 397.855 354.262 397.855C354.563 397.855 354.78 397.774 354.914 397.612C355.05 397.453 355.118 397.222 355.118 396.918V389.955ZM355.749 388.945C355.527 388.945 355.337 388.871 355.178 388.723C355.022 388.572 354.944 388.393 354.944 388.186C354.944 387.976 355.022 387.797 355.178 387.649C355.337 387.499 355.527 387.423 355.749 387.423C355.971 387.423 356.159 387.499 356.316 387.649C356.475 387.797 356.554 387.976 356.554 388.186C356.554 388.393 356.475 388.572 356.316 388.723C356.159 388.871 355.971 388.945 355.749 388.945ZM362.253 393.786V389.955H363.531V396.5H362.278V395.366H362.21C362.06 395.716 361.818 396.007 361.486 396.24C361.156 396.47 360.746 396.585 360.254 396.585C359.834 396.585 359.462 396.493 359.138 396.308C358.817 396.121 358.564 395.844 358.379 395.477C358.197 395.111 358.107 394.658 358.107 394.118V389.955H359.381V393.964C359.381 394.411 359.504 394.766 359.751 395.03C359.999 395.294 360.32 395.426 360.714 395.426C360.953 395.426 361.19 395.366 361.426 395.247C361.665 395.128 361.862 394.947 362.018 394.706C362.178 394.464 362.256 394.158 362.253 393.786ZM365.243 396.5V389.955H366.466V391.02H366.547C366.684 390.659 366.907 390.378 367.216 390.176C367.526 389.972 367.897 389.869 368.328 389.869C368.766 389.869 369.132 389.972 369.428 390.176C369.726 390.381 369.946 390.662 370.088 391.02H370.157C370.313 390.67 370.561 390.392 370.902 390.185C371.243 389.974 371.65 389.869 372.121 389.869C372.715 389.869 373.199 390.055 373.574 390.428C373.952 390.8 374.141 391.361 374.141 392.111V396.5H372.867V392.23C372.867 391.787 372.746 391.466 372.505 391.267C372.263 391.068 371.975 390.969 371.64 390.969C371.225 390.969 370.902 391.097 370.672 391.352C370.442 391.605 370.327 391.93 370.327 392.328V396.5H369.057V392.149C369.057 391.794 368.946 391.509 368.725 391.293C368.503 391.077 368.215 390.969 367.86 390.969C367.618 390.969 367.395 391.033 367.191 391.161C366.989 391.286 366.826 391.46 366.701 391.685C366.578 391.909 366.517 392.169 366.517 392.464V396.5H365.243ZM375.849 398.955V389.955H377.093V391.016H377.2C377.273 390.879 377.38 390.722 377.519 390.543C377.658 390.364 377.852 390.207 378.099 390.074C378.346 389.938 378.673 389.869 379.079 389.869C379.607 389.869 380.079 390.003 380.494 390.27C380.908 390.537 381.234 390.922 381.469 391.425C381.708 391.928 381.827 392.533 381.827 393.24C381.827 393.947 381.71 394.554 381.474 395.06C381.238 395.562 380.914 395.95 380.502 396.223C380.09 396.493 379.62 396.628 379.092 396.628C378.694 396.628 378.369 396.561 378.116 396.428C377.866 396.294 377.67 396.138 377.528 395.959C377.386 395.78 377.276 395.621 377.2 395.482H377.123V398.955H375.849ZM377.097 393.227C377.097 393.687 377.164 394.091 377.298 394.438C377.431 394.784 377.624 395.055 377.877 395.251C378.13 395.445 378.44 395.541 378.806 395.541C379.187 395.541 379.505 395.44 379.761 395.239C380.016 395.034 380.21 394.757 380.34 394.408C380.474 394.058 380.54 393.665 380.54 393.227C380.54 392.795 380.475 392.408 380.344 392.064C380.217 391.72 380.023 391.449 379.765 391.25C379.509 391.051 379.19 390.952 378.806 390.952C378.437 390.952 378.124 391.047 377.869 391.237C377.616 391.428 377.424 391.693 377.293 392.034C377.163 392.375 377.097 392.773 377.097 393.227ZM386.431 396.5V389.955H387.705V396.5H386.431ZM387.074 388.945C386.853 388.945 386.662 388.871 386.503 388.723C386.347 388.572 386.269 388.393 386.269 388.186C386.269 387.976 386.347 387.797 386.503 387.649C386.662 387.499 386.853 387.423 387.074 387.423C387.296 387.423 387.485 387.499 387.641 387.649C387.8 387.797 387.88 387.976 387.88 388.186C387.88 388.393 387.8 388.572 387.641 388.723C387.485 388.871 387.296 388.945 387.074 388.945ZM390.693 392.614V396.5H389.419V389.955H390.642V391.02H390.723C390.874 390.673 391.109 390.395 391.43 390.185C391.754 389.974 392.162 389.869 392.653 389.869C393.099 389.869 393.49 389.963 393.825 390.151C394.161 390.335 394.42 390.611 394.605 390.977C394.79 391.344 394.882 391.797 394.882 392.337V396.5H393.608V392.49C393.608 392.016 393.484 391.645 393.237 391.378C392.99 391.108 392.651 390.973 392.219 390.973C391.923 390.973 391.661 391.037 391.43 391.165C391.203 391.293 391.023 391.48 390.889 391.727C390.759 391.972 390.693 392.267 390.693 392.614ZM399.646 389.955V390.977H396.071V389.955H399.646ZM397.03 388.386H398.304V394.578C398.304 394.825 398.341 395.011 398.415 395.136C398.489 395.259 398.584 395.342 398.7 395.388C398.82 395.43 398.949 395.452 399.088 395.452C399.19 395.452 399.28 395.445 399.357 395.43C399.433 395.416 399.493 395.405 399.536 395.396L399.766 396.449C399.692 396.477 399.587 396.506 399.45 396.534C399.314 396.565 399.143 396.582 398.939 396.585C398.604 396.591 398.291 396.531 398.001 396.406C397.712 396.281 397.477 396.088 397.298 395.827C397.119 395.565 397.03 395.237 397.03 394.842V388.386ZM403.743 396.632C403.129 396.632 402.593 396.491 402.136 396.21C401.679 395.929 401.324 395.536 401.071 395.03C400.818 394.524 400.691 393.933 400.691 393.257C400.691 392.578 400.818 391.984 401.071 391.476C401.324 390.967 401.679 390.572 402.136 390.291C402.593 390.01 403.129 389.869 403.743 389.869C404.356 389.869 404.892 390.01 405.349 390.291C405.806 390.572 406.162 390.967 406.414 391.476C406.667 391.984 406.794 392.578 406.794 393.257C406.794 393.933 406.667 394.524 406.414 395.03C406.162 395.536 405.806 395.929 405.349 396.21C404.892 396.491 404.356 396.632 403.743 396.632ZM403.747 395.562C404.145 395.562 404.474 395.457 404.735 395.247C404.997 395.037 405.19 394.757 405.315 394.408C405.443 394.058 405.507 393.673 405.507 393.253C405.507 392.835 405.443 392.452 405.315 392.102C405.19 391.75 404.997 391.467 404.735 391.254C404.474 391.041 404.145 390.935 403.747 390.935C403.346 390.935 403.014 391.041 402.75 391.254C402.488 391.467 402.294 391.75 402.166 392.102C402.041 392.452 401.978 392.835 401.978 393.253C401.978 393.673 402.041 394.058 402.166 394.408C402.294 394.757 402.488 395.037 402.75 395.247C403.014 395.457 403.346 395.562 403.747 395.562ZM416.254 390.065C416.208 389.662 416.021 389.349 415.691 389.128C415.362 388.903 414.947 388.791 414.447 388.791C414.089 388.791 413.779 388.848 413.518 388.962C413.257 389.072 413.054 389.226 412.909 389.422C412.767 389.615 412.696 389.835 412.696 390.082C412.696 390.29 412.744 390.469 412.841 390.619C412.94 390.77 413.069 390.896 413.228 390.999C413.39 391.098 413.564 391.182 413.748 391.25C413.933 391.315 414.11 391.369 414.281 391.412L415.133 391.634C415.412 391.702 415.697 391.794 415.99 391.911C416.282 392.027 416.554 392.18 416.804 392.371C417.054 392.561 417.255 392.797 417.409 393.078C417.565 393.359 417.643 393.696 417.643 394.088C417.643 394.582 417.515 395.021 417.26 395.405C417.007 395.788 416.639 396.091 416.156 396.312C415.676 396.534 415.095 396.645 414.413 396.645C413.76 396.645 413.194 396.541 412.717 396.334C412.24 396.126 411.866 395.832 411.596 395.452C411.326 395.068 411.177 394.614 411.149 394.088H412.47C412.495 394.403 412.598 394.666 412.777 394.876C412.958 395.084 413.19 395.239 413.471 395.341C413.755 395.44 414.066 395.49 414.404 395.49C414.777 395.49 415.108 395.432 415.397 395.315C415.69 395.196 415.92 395.031 416.088 394.821C416.255 394.608 416.339 394.359 416.339 394.075C416.339 393.817 416.265 393.605 416.118 393.44C415.973 393.276 415.775 393.139 415.525 393.031C415.278 392.923 414.998 392.828 414.686 392.746L413.654 392.464C412.956 392.274 412.402 391.994 411.993 391.625C411.586 391.256 411.383 390.767 411.383 390.159C411.383 389.656 411.52 389.217 411.792 388.842C412.065 388.467 412.434 388.176 412.9 387.969C413.366 387.759 413.892 387.653 414.477 387.653C415.068 387.653 415.589 387.757 416.041 387.964C416.495 388.172 416.853 388.457 417.115 388.821C417.376 389.182 417.512 389.597 417.524 390.065H416.254ZM421.019 396.645C420.604 396.645 420.229 396.568 419.894 396.415C419.559 396.259 419.293 396.033 419.097 395.737C418.904 395.442 418.808 395.08 418.808 394.651C418.808 394.281 418.879 393.977 419.021 393.739C419.163 393.5 419.354 393.311 419.596 393.172C419.837 393.033 420.107 392.928 420.406 392.857C420.704 392.786 421.008 392.732 421.317 392.695C421.71 392.649 422.028 392.612 422.272 392.584C422.516 392.553 422.694 392.503 422.805 392.435C422.915 392.366 422.971 392.256 422.971 392.102V392.072C422.971 391.7 422.866 391.412 422.656 391.207C422.448 391.003 422.138 390.901 421.727 390.901C421.298 390.901 420.96 390.996 420.712 391.186C420.468 391.374 420.299 391.582 420.205 391.812L419.008 391.54C419.15 391.142 419.357 390.821 419.63 390.577C419.906 390.33 420.222 390.151 420.58 390.04C420.938 389.926 421.315 389.869 421.71 389.869C421.971 389.869 422.248 389.901 422.54 389.963C422.836 390.023 423.112 390.134 423.367 390.295C423.626 390.457 423.837 390.689 424.002 390.99C424.167 391.288 424.249 391.676 424.249 392.153V396.5H423.005V395.605H422.954C422.871 395.77 422.748 395.932 422.583 396.091C422.418 396.25 422.207 396.382 421.948 396.487C421.69 396.592 421.38 396.645 421.019 396.645ZM421.296 395.622C421.648 395.622 421.95 395.553 422.2 395.413C422.452 395.274 422.644 395.092 422.775 394.868C422.908 394.641 422.975 394.398 422.975 394.139V393.295C422.93 393.341 422.842 393.384 422.711 393.423C422.583 393.46 422.437 393.493 422.272 393.521C422.107 393.547 421.947 393.571 421.79 393.594C421.634 393.614 421.504 393.631 421.398 393.645C421.151 393.676 420.925 393.729 420.721 393.803C420.519 393.876 420.357 393.983 420.235 394.122C420.116 394.259 420.056 394.44 420.056 394.668C420.056 394.983 420.173 395.222 420.406 395.384C420.638 395.543 420.935 395.622 421.296 395.622ZM427.221 392.614V396.5H425.946V389.955H427.169V391.02H427.25C427.401 390.673 427.637 390.395 427.958 390.185C428.282 389.974 428.689 389.869 429.181 389.869C429.627 389.869 430.017 389.963 430.353 390.151C430.688 390.335 430.948 390.611 431.132 390.977C431.317 391.344 431.409 391.797 431.409 392.337V396.5H430.135V392.49C430.135 392.016 430.012 391.645 429.765 391.378C429.517 391.108 429.178 390.973 428.746 390.973C428.451 390.973 428.188 391.037 427.958 391.165C427.73 391.293 427.55 391.48 427.417 391.727C427.286 391.972 427.221 392.267 427.221 392.614ZM433.118 396.5V389.955H434.392V396.5H433.118ZM433.762 388.945C433.54 388.945 433.35 388.871 433.191 388.723C433.034 388.572 432.956 388.393 432.956 388.186C432.956 387.976 433.034 387.797 433.191 387.649C433.35 387.499 433.54 387.423 433.762 387.423C433.983 387.423 434.172 387.499 434.328 387.649C434.488 387.797 434.567 387.976 434.567 388.186C434.567 388.393 434.488 388.572 434.328 388.723C434.172 388.871 433.983 388.945 433.762 388.945ZM439.162 389.955V390.977H435.587V389.955H439.162ZM436.545 388.386H437.82V394.578C437.82 394.825 437.857 395.011 437.93 395.136C438.004 395.259 438.099 395.342 438.216 395.388C438.335 395.43 438.464 395.452 438.604 395.452C438.706 395.452 438.795 395.445 438.872 395.43C438.949 395.416 439.009 395.405 439.051 395.396L439.281 396.449C439.207 396.477 439.102 396.506 438.966 396.534C438.83 396.565 438.659 396.582 438.455 396.585C438.119 396.591 437.807 396.531 437.517 396.406C437.227 396.281 436.993 396.088 436.814 395.827C436.635 395.565 436.545 395.237 436.545 394.842V388.386ZM441.377 398.955C441.186 398.955 441.013 398.939 440.857 398.908C440.701 398.879 440.584 398.848 440.507 398.814L440.814 397.77C441.047 397.832 441.255 397.859 441.436 397.851C441.618 397.842 441.779 397.774 441.918 397.646C442.06 397.518 442.185 397.31 442.293 397.02L442.451 396.585L440.056 389.955H441.419L443.077 395.034H443.145L444.803 389.955H446.171L443.473 397.374C443.348 397.714 443.189 398.003 442.996 398.239C442.803 398.477 442.573 398.656 442.306 398.776C442.039 398.895 441.729 398.955 441.377 398.955ZM452.449 396.645C452.034 396.645 451.659 396.568 451.324 396.415C450.989 396.259 450.723 396.033 450.527 395.737C450.334 395.442 450.237 395.08 450.237 394.651C450.237 394.281 450.308 393.977 450.45 393.739C450.592 393.5 450.784 393.311 451.026 393.172C451.267 393.033 451.537 392.928 451.835 392.857C452.134 392.786 452.438 392.732 452.747 392.695C453.139 392.649 453.457 392.612 453.702 392.584C453.946 392.553 454.124 392.503 454.234 392.435C454.345 392.366 454.401 392.256 454.401 392.102V392.072C454.401 391.7 454.295 391.412 454.085 391.207C453.878 391.003 453.568 390.901 453.156 390.901C452.727 390.901 452.389 390.996 452.142 391.186C451.898 391.374 451.729 391.582 451.635 391.812L450.438 391.54C450.58 391.142 450.787 390.821 451.06 390.577C451.335 390.33 451.652 390.151 452.01 390.04C452.368 389.926 452.744 389.869 453.139 389.869C453.401 389.869 453.678 389.901 453.97 389.963C454.266 390.023 454.541 390.134 454.797 390.295C455.055 390.457 455.267 390.689 455.432 390.99C455.597 391.288 455.679 391.676 455.679 392.153V396.5H454.435V395.605H454.384C454.301 395.77 454.178 395.932 454.013 396.091C453.848 396.25 453.636 396.382 453.378 396.487C453.119 396.592 452.81 396.645 452.449 396.645ZM452.726 395.622C453.078 395.622 453.379 395.553 453.629 395.413C453.882 395.274 454.074 395.092 454.205 394.868C454.338 394.641 454.405 394.398 454.405 394.139V393.295C454.359 393.341 454.271 393.384 454.141 393.423C454.013 393.46 453.866 393.493 453.702 393.521C453.537 393.547 453.376 393.571 453.22 393.594C453.064 393.614 452.933 393.631 452.828 393.645C452.581 393.676 452.355 393.729 452.151 393.803C451.949 393.876 451.787 393.983 451.665 394.122C451.545 394.259 451.486 394.44 451.486 394.668C451.486 394.983 451.602 395.222 451.835 395.384C452.068 395.543 452.365 395.622 452.726 395.622ZM458.65 392.614V396.5H457.376V389.955H458.599V391.02H458.68C458.831 390.673 459.066 390.395 459.387 390.185C459.711 389.974 460.119 389.869 460.61 389.869C461.056 389.869 461.447 389.963 461.782 390.151C462.118 390.335 462.377 390.611 462.562 390.977C462.747 391.344 462.839 391.797 462.839 392.337V396.5H461.565V392.49C461.565 392.016 461.441 391.645 461.194 391.378C460.947 391.108 460.608 390.973 460.176 390.973C459.88 390.973 459.618 391.037 459.387 391.165C459.16 391.293 458.98 391.48 458.846 391.727C458.716 391.972 458.65 392.267 458.65 392.614ZM466.998 396.628C466.47 396.628 465.998 396.493 465.583 396.223C465.172 395.95 464.848 395.562 464.612 395.06C464.379 394.554 464.262 393.947 464.262 393.24C464.262 392.533 464.38 391.928 464.616 391.425C464.855 390.922 465.181 390.537 465.596 390.27C466.011 390.003 466.481 389.869 467.007 389.869C467.413 389.869 467.74 389.938 467.987 390.074C468.237 390.207 468.43 390.364 468.566 390.543C468.706 390.722 468.814 390.879 468.89 391.016H468.967V387.773H470.241V396.5H468.997V395.482H468.89C468.814 395.621 468.703 395.78 468.558 395.959C468.416 396.138 468.22 396.294 467.97 396.428C467.72 396.561 467.396 396.628 466.998 396.628ZM467.279 395.541C467.646 395.541 467.956 395.445 468.208 395.251C468.464 395.055 468.657 394.784 468.788 394.438C468.922 394.091 468.988 393.687 468.988 393.227C468.988 392.773 468.923 392.375 468.792 392.034C468.662 391.693 468.47 391.428 468.217 391.237C467.964 391.047 467.652 390.952 467.279 390.952C466.896 390.952 466.576 391.051 466.321 391.25C466.065 391.449 465.872 391.72 465.741 392.064C465.613 392.408 465.549 392.795 465.549 393.227C465.549 393.665 465.615 394.058 465.745 394.408C465.876 394.757 466.069 395.034 466.325 395.239C466.583 395.44 466.902 395.541 467.279 395.541ZM478.35 389.955V390.977H474.652V389.955H478.35ZM475.666 396.5V389.196C475.666 388.787 475.755 388.447 475.934 388.178C476.113 387.905 476.35 387.702 476.646 387.568C476.941 387.432 477.262 387.364 477.609 387.364C477.865 387.364 478.083 387.385 478.265 387.428C478.447 387.467 478.582 387.504 478.67 387.538L478.372 388.57C478.312 388.553 478.235 388.533 478.142 388.51C478.048 388.484 477.934 388.472 477.801 388.472C477.491 388.472 477.27 388.548 477.136 388.702C477.005 388.855 476.94 389.077 476.94 389.366V396.5H475.666ZM479.665 396.5V389.955H480.939V396.5H479.665ZM480.309 388.945C480.087 388.945 479.897 388.871 479.738 388.723C479.581 388.572 479.503 388.393 479.503 388.186C479.503 387.976 479.581 387.797 479.738 387.649C479.897 387.499 480.087 387.423 480.309 387.423C480.53 387.423 480.719 387.499 480.875 387.649C481.034 387.797 481.114 387.976 481.114 388.186C481.114 388.393 481.034 388.572 480.875 388.723C480.719 388.871 480.53 388.945 480.309 388.945ZM483.659 389.955L485.104 392.503L486.561 389.955H487.955L485.913 393.227L487.972 396.5H486.578L485.104 394.054L483.634 396.5H482.236L484.273 393.227L482.261 389.955H483.659ZM492.439 396.5V389.955H493.713V396.5H492.439ZM493.082 388.945C492.86 388.945 492.67 388.871 492.511 388.723C492.355 388.572 492.277 388.393 492.277 388.186C492.277 387.976 492.355 387.797 492.511 387.649C492.67 387.499 492.86 387.423 493.082 387.423C493.304 387.423 493.493 387.499 493.649 387.649C493.808 387.797 493.887 387.976 493.887 388.186C493.887 388.393 493.808 388.572 493.649 388.723C493.493 388.871 493.304 388.945 493.082 388.945ZM498.482 389.955V390.977H494.907V389.955H498.482ZM495.866 388.386H497.14V394.578C497.14 394.825 497.177 395.011 497.251 395.136C497.325 395.259 497.42 395.342 497.536 395.388C497.656 395.43 497.785 395.452 497.924 395.452C498.026 395.452 498.116 395.445 498.192 395.43C498.269 395.416 498.329 395.405 498.371 395.396L498.602 396.449C498.528 396.477 498.423 396.506 498.286 396.534C498.15 396.565 497.979 396.582 497.775 396.585C497.44 396.591 497.127 396.531 496.837 396.406C496.548 396.281 496.313 396.088 496.134 395.827C495.955 395.565 495.866 395.237 495.866 394.842V388.386Z" fill="#A1A1AA"/>
<path d="M454.5 428.5C454.5 422.149 459.649 417 466 417H500C506.351 417 511.5 422.149 511.5 428.5V436.5C511.5 442.851 506.351 448 500 448H466C459.649 448 454.5 442.851 454.5 436.5V428.5Z" fill="url(#paint2_linear_1_353)"/>
<path d="M454.5 428.5C454.5 422.149 459.649 417 466 417H500C506.351 417 511.5 422.149 511.5 428.5V436.5C511.5 442.851 506.351 448 500 448H466C459.649 448 454.5 442.851 454.5 436.5V428.5Z" stroke="url(#paint3_linear_1_353)"/>
<path d="M469.784 436.5H466.959V427.773H469.874C470.729 427.773 471.463 427.947 472.077 428.297C472.69 428.643 473.161 429.142 473.487 429.793C473.817 430.44 473.982 431.217 473.982 432.124C473.982 433.033 473.815 433.814 473.483 434.467C473.153 435.121 472.676 435.624 472.051 435.976C471.426 436.325 470.67 436.5 469.784 436.5ZM468.276 435.349H469.712C470.376 435.349 470.929 435.224 471.369 434.974C471.81 434.722 472.139 434.357 472.358 433.879C472.577 433.399 472.686 432.814 472.686 432.124C472.686 431.439 472.577 430.858 472.358 430.381C472.142 429.903 471.82 429.541 471.391 429.294C470.962 429.047 470.429 428.923 469.793 428.923H468.276V435.349ZM478.274 436.632C477.66 436.632 477.125 436.491 476.667 436.21C476.21 435.929 475.855 435.536 475.602 435.03C475.349 434.524 475.223 433.933 475.223 433.257C475.223 432.578 475.349 431.984 475.602 431.476C475.855 430.967 476.21 430.572 476.667 430.291C477.125 430.01 477.66 429.869 478.274 429.869C478.887 429.869 479.423 430.01 479.88 430.291C480.338 430.572 480.693 430.967 480.946 431.476C481.199 431.984 481.325 432.578 481.325 433.257C481.325 433.933 481.199 434.524 480.946 435.03C480.693 435.536 480.338 435.929 479.88 436.21C479.423 436.491 478.887 436.632 478.274 436.632ZM478.278 435.562C478.676 435.562 479.005 435.457 479.267 435.247C479.528 435.037 479.721 434.757 479.846 434.408C479.974 434.058 480.038 433.673 480.038 433.253C480.038 432.835 479.974 432.452 479.846 432.102C479.721 431.75 479.528 431.467 479.267 431.254C479.005 431.041 478.676 430.935 478.278 430.935C477.877 430.935 477.545 431.041 477.281 431.254C477.02 431.467 476.825 431.75 476.697 432.102C476.572 432.452 476.51 432.835 476.51 433.253C476.51 433.673 476.572 434.058 476.697 434.408C476.825 434.757 477.02 435.037 477.281 435.247C477.545 435.457 477.877 435.562 478.278 435.562ZM484.021 432.614V436.5H482.747V429.955H483.97V431.02H484.051C484.202 430.673 484.438 430.395 484.759 430.185C485.082 429.974 485.49 429.869 485.982 429.869C486.428 429.869 486.818 429.963 487.153 430.151C487.489 430.335 487.749 430.611 487.933 430.977C488.118 431.344 488.21 431.797 488.21 432.337V436.5H486.936V432.49C486.936 432.016 486.813 431.645 486.565 431.378C486.318 431.108 485.979 430.973 485.547 430.973C485.251 430.973 484.989 431.037 484.759 431.165C484.531 431.293 484.351 431.48 484.217 431.727C484.087 431.972 484.021 432.267 484.021 432.614ZM492.74 436.632C492.095 436.632 491.54 436.494 491.074 436.219C490.611 435.94 490.253 435.55 490 435.047C489.75 434.541 489.625 433.949 489.625 433.27C489.625 432.599 489.75 432.009 490 431.497C490.253 430.986 490.605 430.587 491.057 430.3C491.511 430.013 492.043 429.869 492.651 429.869C493.02 429.869 493.378 429.93 493.724 430.053C494.071 430.175 494.382 430.366 494.658 430.628C494.933 430.889 495.151 431.229 495.31 431.646C495.469 432.061 495.548 432.565 495.548 433.159V433.611H490.345V432.656H494.3C494.3 432.321 494.232 432.024 494.095 431.766C493.959 431.504 493.767 431.298 493.52 431.148C493.276 430.997 492.989 430.922 492.659 430.922C492.301 430.922 491.989 431.01 491.722 431.186C491.457 431.359 491.253 431.587 491.108 431.868C490.966 432.146 490.895 432.449 490.895 432.776V433.521C490.895 433.959 490.972 434.331 491.125 434.638C491.281 434.945 491.499 435.179 491.777 435.341C492.055 435.5 492.381 435.58 492.753 435.58C492.994 435.58 493.214 435.545 493.413 435.477C493.612 435.406 493.784 435.301 493.929 435.162C494.074 435.023 494.185 434.851 494.261 434.646L495.467 434.864C495.371 435.219 495.197 435.53 494.947 435.797C494.7 436.061 494.389 436.267 494.014 436.415C493.642 436.56 493.217 436.632 492.74 436.632ZM498.569 427.773L498.458 433.99H497.277L497.167 427.773H498.569ZM497.87 436.581C497.634 436.581 497.432 436.499 497.265 436.334C497.097 436.166 497.015 435.964 497.017 435.729C497.015 435.496 497.097 435.297 497.265 435.132C497.432 434.964 497.634 434.881 497.87 434.881C498.1 434.881 498.299 434.964 498.466 435.132C498.634 435.297 498.719 435.496 498.722 435.729C498.719 435.885 498.678 436.028 498.598 436.159C498.522 436.287 498.419 436.389 498.292 436.466C498.164 436.543 498.023 436.581 497.87 436.581Z" fill="#A1A1AA"/>
<g filter="url(#filter0_dd_1_353)">
<rect x="347.6" y="444.6" width="51.8" height="22.8" rx="6.6" fill="#FAFAFA"/>
<rect x="347.6" y="444.6" width="51.8" height="22.8" rx="6.6" stroke="#D4D4D8" stroke-width="1.2"/>
<path d="M355.959 460V451.273H361.43V452.406H357.276V455.065H361.145V456.195H357.276V458.866H361.482V460H355.959ZM363.087 460V453.455H364.319V454.494H364.387C364.506 454.142 364.716 453.865 365.017 453.663C365.321 453.459 365.665 453.357 366.049 453.357C366.128 453.357 366.222 453.359 366.33 453.365C366.441 453.371 366.527 453.378 366.59 453.386V454.605C366.539 454.591 366.448 454.575 366.317 454.558C366.186 454.538 366.056 454.528 365.925 454.528C365.624 454.528 365.355 454.592 365.12 454.72C364.887 454.845 364.702 455.02 364.566 455.244C364.429 455.466 364.361 455.719 364.361 456.003V460H363.087ZM367.692 460V453.455H368.967V460H367.692ZM368.336 452.445C368.114 452.445 367.924 452.371 367.765 452.223C367.609 452.072 367.531 451.893 367.531 451.686C367.531 451.476 367.609 451.297 367.765 451.149C367.924 450.999 368.114 450.923 368.336 450.923C368.558 450.923 368.746 450.999 368.903 451.149C369.062 451.297 369.141 451.476 369.141 451.686C369.141 451.893 369.062 452.072 368.903 452.223C368.746 452.371 368.558 452.445 368.336 452.445ZM371.853 457.78L371.844 456.224H372.066L374.674 453.455H376.199L373.225 456.608H373.025L371.853 457.78ZM370.681 460V451.273H371.955V460H370.681ZM374.814 460L372.471 456.889L373.348 455.999L376.378 460H374.814ZM383.464 460H380.638V451.273H383.553C384.408 451.273 385.143 451.447 385.756 451.797C386.37 452.143 386.84 452.642 387.167 453.293C387.496 453.94 387.661 454.717 387.661 455.624C387.661 456.533 387.495 457.314 387.163 457.967C386.833 458.621 386.356 459.124 385.731 459.476C385.106 459.825 384.35 460 383.464 460ZM381.955 458.849H383.391C384.056 458.849 384.609 458.724 385.049 458.474C385.489 458.222 385.819 457.857 386.038 457.379C386.256 456.899 386.366 456.314 386.366 455.624C386.366 454.939 386.256 454.358 386.038 453.881C385.822 453.403 385.499 453.041 385.07 452.794C384.641 452.547 384.109 452.423 383.472 452.423H381.955V458.849ZM389.485 460.081C389.252 460.081 389.052 459.999 388.884 459.834C388.717 459.666 388.633 459.464 388.633 459.229C388.633 458.996 388.717 458.797 388.884 458.632C389.052 458.464 389.252 458.381 389.485 458.381C389.718 458.381 389.918 458.464 390.086 458.632C390.254 458.797 390.337 458.996 390.337 459.229C390.337 459.385 390.298 459.528 390.218 459.659C390.141 459.787 390.039 459.889 389.911 459.966C389.783 460.043 389.641 460.081 389.485 460.081Z" fill="#18181B"/>
</g>
<path d="M48.5 249.5C48.5 243.149 53.6487 238 60 238H325C331.351 238 336.5 243.149 336.5 249.5V257.5C336.5 263.851 331.351 269 325 269H60C53.6487 269 48.5 263.851 48.5 257.5V249.5Z" fill="url(#paint4_linear_1_353)"/>
<path d="M48.5 249.5C48.5 243.149 53.6487 238 60 238H325C331.351 238 336.5 243.149 336.5 249.5V257.5C336.5 263.851 331.351 269 325 269H60C53.6487 269 48.5 263.851 48.5 257.5V249.5Z" stroke="url(#paint5_linear_1_353)"/>
<path d="M62.6676 257.5L60.2472 248.773H61.6321L63.3324 255.531H63.4134L65.1818 248.773H66.554L68.3224 255.536H68.4034L70.0994 248.773H71.4886L69.0639 257.5H67.7386L65.902 250.963H65.8338L63.9972 257.5H62.6676ZM74.7635 257.632C74.1186 257.632 73.5632 257.494 73.0973 257.219C72.6342 256.94 72.2763 256.55 72.0234 256.047C71.7734 255.541 71.6484 254.949 71.6484 254.27C71.6484 253.599 71.7734 253.009 72.0234 252.497C72.2763 251.986 72.6286 251.587 73.0803 251.3C73.5348 251.013 74.0661 250.869 74.674 250.869C75.0433 250.869 75.4013 250.93 75.7479 251.053C76.0945 251.175 76.4055 251.366 76.6811 251.628C76.9567 251.889 77.174 252.229 77.3331 252.646C77.4922 253.061 77.5717 253.565 77.5717 254.159V254.611H72.3686V253.656H76.3232C76.3232 253.321 76.255 253.024 76.1186 252.766C75.9822 252.504 75.7905 252.298 75.5433 252.148C75.299 251.997 75.0121 251.922 74.6825 251.922C74.3246 251.922 74.0121 252.01 73.745 252.186C73.4808 252.359 73.2763 252.587 73.1314 252.868C72.9893 253.146 72.9183 253.449 72.9183 253.776V254.521C72.9183 254.959 72.995 255.331 73.1484 255.638C73.3047 255.945 73.522 256.179 73.8004 256.341C74.0788 256.5 74.4041 256.58 74.7763 256.58C75.0178 256.58 75.2379 256.545 75.4368 256.477C75.6357 256.406 75.8075 256.301 75.9524 256.162C76.0973 256.023 76.2081 255.851 76.2848 255.646L77.4908 255.864C77.3942 256.219 77.2209 256.53 76.9709 256.797C76.7237 257.061 76.4126 257.267 76.0376 257.415C75.6655 257.56 75.2408 257.632 74.7635 257.632ZM83.4354 253.614V257.5H82.1612V250.955H83.3842V252.02H83.4652C83.6158 251.673 83.8516 251.395 84.1726 251.185C84.4964 250.974 84.9041 250.869 85.3956 250.869C85.8416 250.869 86.2322 250.963 86.5675 251.151C86.9027 251.335 87.1626 251.611 87.3473 251.977C87.532 252.344 87.6243 252.797 87.6243 253.337V257.5H86.3501V253.49C86.3501 253.016 86.2266 252.645 85.9794 252.378C85.7322 252.108 85.3928 251.973 84.9609 251.973C84.6655 251.973 84.4027 252.037 84.1726 252.165C83.9453 252.293 83.7649 252.48 83.6314 252.727C83.5007 252.972 83.4354 253.267 83.4354 253.614ZM92.1541 257.632C91.5092 257.632 90.9538 257.494 90.4879 257.219C90.0249 256.94 89.6669 256.55 89.4141 256.047C89.1641 255.541 89.0391 254.949 89.0391 254.27C89.0391 253.599 89.1641 253.009 89.4141 252.497C89.6669 251.986 90.0192 251.587 90.4709 251.3C90.9254 251.013 91.4567 250.869 92.0646 250.869C92.4339 250.869 92.7919 250.93 93.1385 251.053C93.4851 251.175 93.7962 251.366 94.0717 251.628C94.3473 251.889 94.5646 252.229 94.7237 252.646C94.8828 253.061 94.9624 253.565 94.9624 254.159V254.611H89.7592V253.656H93.7138C93.7138 253.321 93.6456 253.024 93.5092 252.766C93.3729 252.504 93.1811 252.298 92.9339 252.148C92.6896 251.997 92.4027 251.922 92.0732 251.922C91.7152 251.922 91.4027 252.01 91.1357 252.186C90.8714 252.359 90.6669 252.587 90.522 252.868C90.38 253.146 90.3089 253.449 90.3089 253.776V254.521C90.3089 254.959 90.3857 255.331 90.5391 255.638C90.6953 255.945 90.9126 256.179 91.1911 256.341C91.4695 256.5 91.7947 256.58 92.1669 256.58C92.4084 256.58 92.6286 256.545 92.8274 256.477C93.0263 256.406 93.1982 256.301 93.343 256.162C93.4879 256.023 93.5987 255.851 93.6754 255.646L94.8814 255.864C94.7848 256.219 94.6115 256.53 94.3615 256.797C94.1143 257.061 93.8033 257.267 93.4283 257.415C93.0561 257.56 92.6314 257.632 92.1541 257.632ZM99.1971 257.632C98.5522 257.632 97.9968 257.494 97.5309 257.219C97.0678 256.94 96.7099 256.55 96.457 256.047C96.207 255.541 96.082 254.949 96.082 254.27C96.082 253.599 96.207 253.009 96.457 252.497C96.7099 251.986 97.0621 251.587 97.5138 251.3C97.9684 251.013 98.4996 250.869 99.1076 250.869C99.4769 250.869 99.8349 250.93 100.181 251.053C100.528 251.175 100.839 251.366 101.115 251.628C101.39 251.889 101.608 252.229 101.767 252.646C101.926 253.061 102.005 253.565 102.005 254.159V254.611H96.8022V253.656H100.757C100.757 253.321 100.689 253.024 100.552 252.766C100.416 252.504 100.224 252.298 99.9769 252.148C99.7326 251.997 99.4457 251.922 99.1161 251.922C98.7582 251.922 98.4457 252.01 98.1786 252.186C97.9144 252.359 97.7099 252.587 97.565 252.868C97.4229 253.146 97.3519 253.449 97.3519 253.776V254.521C97.3519 254.959 97.4286 255.331 97.582 255.638C97.7383 255.945 97.9556 256.179 98.234 256.341C98.5124 256.5 98.8377 256.58 99.2099 256.58C99.4513 256.58 99.6715 256.545 99.8704 256.477C100.069 256.406 100.241 256.301 100.386 256.162C100.531 256.023 100.642 255.851 100.718 255.646L101.924 255.864C101.828 256.219 101.654 256.53 101.404 256.797C101.157 257.061 100.846 257.267 100.471 257.415C100.099 257.56 99.6744 257.632 99.1971 257.632ZM105.869 257.628C105.341 257.628 104.869 257.493 104.455 257.223C104.043 256.95 103.719 256.562 103.483 256.06C103.25 255.554 103.134 254.947 103.134 254.24C103.134 253.533 103.251 252.928 103.487 252.425C103.726 251.922 104.053 251.537 104.467 251.27C104.882 251.003 105.352 250.869 105.878 250.869C106.284 250.869 106.611 250.938 106.858 251.074C107.108 251.207 107.301 251.364 107.438 251.543C107.577 251.722 107.685 251.879 107.761 252.016H107.838V248.773H109.112V257.5H107.868V256.482H107.761C107.685 256.621 107.574 256.78 107.429 256.959C107.287 257.138 107.091 257.294 106.841 257.428C106.591 257.561 106.267 257.628 105.869 257.628ZM106.151 256.541C106.517 256.541 106.827 256.445 107.08 256.251C107.335 256.055 107.528 255.784 107.659 255.438C107.793 255.091 107.859 254.687 107.859 254.227C107.859 253.773 107.794 253.375 107.663 253.034C107.533 252.693 107.341 252.428 107.088 252.237C106.835 252.047 106.523 251.952 106.151 251.952C105.767 251.952 105.447 252.051 105.192 252.25C104.936 252.449 104.743 252.72 104.612 253.064C104.484 253.408 104.42 253.795 104.42 254.227C104.42 254.665 104.486 255.058 104.616 255.408C104.747 255.757 104.94 256.034 105.196 256.239C105.455 256.44 105.773 256.541 106.151 256.541ZM117.162 250.955V251.977H113.587V250.955H117.162ZM114.545 249.386H115.82V255.578C115.82 255.825 115.857 256.011 115.93 256.136C116.004 256.259 116.099 256.342 116.216 256.388C116.335 256.43 116.464 256.452 116.604 256.452C116.706 256.452 116.795 256.445 116.872 256.43C116.949 256.416 117.009 256.405 117.051 256.396L117.281 257.449C117.207 257.477 117.102 257.506 116.966 257.534C116.83 257.565 116.659 257.582 116.455 257.585C116.119 257.591 115.807 257.531 115.517 257.406C115.227 257.281 114.993 257.088 114.814 256.827C114.635 256.565 114.545 256.237 114.545 255.842V249.386ZM121.258 257.632C120.645 257.632 120.109 257.491 119.652 257.21C119.194 256.929 118.839 256.536 118.586 256.03C118.333 255.524 118.207 254.933 118.207 254.257C118.207 253.578 118.333 252.984 118.586 252.476C118.839 251.967 119.194 251.572 119.652 251.291C120.109 251.01 120.645 250.869 121.258 250.869C121.872 250.869 122.407 251.01 122.865 251.291C123.322 251.572 123.677 251.967 123.93 252.476C124.183 252.984 124.309 253.578 124.309 254.257C124.309 254.933 124.183 255.524 123.93 256.03C123.677 256.536 123.322 256.929 122.865 257.21C122.407 257.491 121.872 257.632 121.258 257.632ZM121.262 256.562C121.66 256.562 121.99 256.457 122.251 256.247C122.512 256.037 122.706 255.757 122.831 255.408C122.958 255.058 123.022 254.673 123.022 254.253C123.022 253.835 122.958 253.452 122.831 253.102C122.706 252.75 122.512 252.467 122.251 252.254C121.99 252.041 121.66 251.935 121.262 251.935C120.862 251.935 120.529 252.041 120.265 252.254C120.004 252.467 119.809 252.75 119.681 253.102C119.556 253.452 119.494 253.835 119.494 254.253C119.494 254.673 119.556 255.058 119.681 255.408C119.809 255.757 120.004 256.037 120.265 256.247C120.529 256.457 120.862 256.562 121.262 256.562ZM133.054 254.786V250.955H134.332V257.5H133.079V256.366H133.011C132.86 256.716 132.619 257.007 132.287 257.24C131.957 257.47 131.547 257.585 131.055 257.585C130.635 257.585 130.262 257.493 129.939 257.308C129.618 257.121 129.365 256.844 129.18 256.477C128.998 256.111 128.907 255.658 128.907 255.118V250.955H130.181V254.964C130.181 255.411 130.305 255.766 130.552 256.03C130.799 256.294 131.12 256.426 131.515 256.426C131.754 256.426 131.991 256.366 132.227 256.247C132.466 256.128 132.663 255.947 132.819 255.706C132.978 255.464 133.056 255.158 133.054 254.786ZM136.044 259.955V250.955H137.288V252.016H137.395C137.469 251.879 137.575 251.722 137.714 251.543C137.854 251.364 138.047 251.207 138.294 251.074C138.541 250.938 138.868 250.869 139.274 250.869C139.803 250.869 140.274 251.003 140.689 251.27C141.104 251.537 141.429 251.922 141.665 252.425C141.903 252.928 142.023 253.533 142.023 254.24C142.023 254.947 141.905 255.554 141.669 256.06C141.433 256.562 141.109 256.95 140.697 257.223C140.286 257.493 139.815 257.628 139.287 257.628C138.889 257.628 138.564 257.561 138.311 257.428C138.061 257.294 137.865 257.138 137.723 256.959C137.581 256.78 137.472 256.621 137.395 256.482H137.318V259.955H136.044ZM137.293 254.227C137.293 254.687 137.359 255.091 137.493 255.438C137.626 255.784 137.82 256.055 138.072 256.251C138.325 256.445 138.635 256.541 139.001 256.541C139.382 256.541 139.7 256.44 139.956 256.239C140.212 256.034 140.405 255.757 140.536 255.408C140.669 255.058 140.736 254.665 140.736 254.227C140.736 253.795 140.67 253.408 140.54 253.064C140.412 252.72 140.219 252.449 139.96 252.25C139.705 252.051 139.385 251.952 139.001 251.952C138.632 251.952 138.32 252.047 138.064 252.237C137.811 252.428 137.619 252.693 137.489 253.034C137.358 253.375 137.293 253.773 137.293 254.227ZM145.901 257.628C145.372 257.628 144.901 257.493 144.486 257.223C144.074 256.95 143.75 256.562 143.514 256.06C143.281 255.554 143.165 254.947 143.165 254.24C143.165 253.533 143.283 252.928 143.518 252.425C143.757 251.922 144.084 251.537 144.499 251.27C144.913 251.003 145.384 250.869 145.909 250.869C146.315 250.869 146.642 250.938 146.889 251.074C147.139 251.207 147.332 251.364 147.469 251.543C147.608 251.722 147.716 251.879 147.793 252.016H147.869V248.773H149.143V257.5H147.899V256.482H147.793C147.716 256.621 147.605 256.78 147.46 256.959C147.318 257.138 147.122 257.294 146.872 257.428C146.622 257.561 146.298 257.628 145.901 257.628ZM146.182 256.541C146.548 256.541 146.858 256.445 147.111 256.251C147.366 256.055 147.56 255.784 147.69 255.438C147.824 255.091 147.891 254.687 147.891 254.227C147.891 253.773 147.825 253.375 147.695 253.034C147.564 252.693 147.372 252.428 147.119 252.237C146.866 252.047 146.554 251.952 146.182 251.952C145.798 251.952 145.479 252.051 145.223 252.25C144.967 252.449 144.774 252.72 144.643 253.064C144.516 253.408 144.452 253.795 144.452 254.227C144.452 254.665 144.517 255.058 144.648 255.408C144.778 255.757 144.972 256.034 145.227 256.239C145.486 256.44 145.804 256.541 146.182 256.541ZM152.867 257.645C152.452 257.645 152.077 257.568 151.742 257.415C151.407 257.259 151.141 257.033 150.945 256.737C150.752 256.442 150.655 256.08 150.655 255.651C150.655 255.281 150.726 254.977 150.868 254.739C151.01 254.5 151.202 254.311 151.444 254.172C151.685 254.033 151.955 253.928 152.253 253.857C152.551 253.786 152.855 253.732 153.165 253.695C153.557 253.649 153.875 253.612 154.12 253.584C154.364 253.553 154.542 253.503 154.652 253.435C154.763 253.366 154.819 253.256 154.819 253.102V253.072C154.819 252.7 154.713 252.412 154.503 252.207C154.296 252.003 153.986 251.901 153.574 251.901C153.145 251.901 152.807 251.996 152.56 252.186C152.316 252.374 152.147 252.582 152.053 252.812L150.855 252.54C150.998 252.142 151.205 251.821 151.478 251.577C151.753 251.33 152.07 251.151 152.428 251.04C152.786 250.926 153.162 250.869 153.557 250.869C153.819 250.869 154.096 250.901 154.388 250.963C154.684 251.023 154.959 251.134 155.215 251.295C155.473 251.457 155.685 251.689 155.85 251.99C156.015 252.288 156.097 252.676 156.097 253.153V257.5H154.853V256.605H154.801C154.719 256.77 154.596 256.932 154.431 257.091C154.266 257.25 154.054 257.382 153.796 257.487C153.537 257.592 153.228 257.645 152.867 257.645ZM153.144 256.622C153.496 256.622 153.797 256.553 154.047 256.413C154.3 256.274 154.492 256.092 154.623 255.868C154.756 255.641 154.823 255.398 154.823 255.139V254.295C154.777 254.341 154.689 254.384 154.559 254.423C154.431 254.46 154.284 254.493 154.12 254.521C153.955 254.547 153.794 254.571 153.638 254.594C153.482 254.614 153.351 254.631 153.246 254.645C152.999 254.676 152.773 254.729 152.569 254.803C152.367 254.876 152.205 254.983 152.083 255.122C151.963 255.259 151.904 255.44 151.904 255.668C151.904 255.983 152.02 256.222 152.253 256.384C152.486 256.543 152.783 256.622 153.144 256.622ZM160.849 250.955V251.977H157.274V250.955H160.849ZM158.233 249.386H159.507V255.578C159.507 255.825 159.544 256.011 159.618 256.136C159.692 256.259 159.787 256.342 159.903 256.388C160.023 256.43 160.152 256.452 160.291 256.452C160.393 256.452 160.483 256.445 160.56 256.43C160.636 256.416 160.696 256.405 160.739 256.396L160.969 257.449C160.895 257.477 160.79 257.506 160.653 257.534C160.517 257.565 160.347 257.582 160.142 257.585C159.807 257.591 159.494 257.531 159.205 257.406C158.915 257.281 158.68 257.088 158.501 256.827C158.322 256.565 158.233 256.237 158.233 255.842V249.386ZM165.01 257.632C164.365 257.632 163.809 257.494 163.343 257.219C162.88 256.94 162.522 256.55 162.27 256.047C162.02 255.541 161.895 254.949 161.895 254.27C161.895 253.599 162.02 253.009 162.27 252.497C162.522 251.986 162.875 251.587 163.326 251.3C163.781 251.013 164.312 250.869 164.92 250.869C165.289 250.869 165.647 250.93 165.994 251.053C166.341 251.175 166.652 251.366 166.927 251.628C167.203 251.889 167.42 252.229 167.579 252.646C167.738 253.061 167.818 253.565 167.818 254.159V254.611H162.615V253.656H166.569C166.569 253.321 166.501 253.024 166.365 252.766C166.228 252.504 166.037 252.298 165.789 252.148C165.545 251.997 165.258 251.922 164.929 251.922C164.571 251.922 164.258 252.01 163.991 252.186C163.727 252.359 163.522 252.587 163.377 252.868C163.235 253.146 163.164 253.449 163.164 253.776V254.521C163.164 254.959 163.241 255.331 163.395 255.638C163.551 255.945 163.768 256.179 164.047 256.341C164.325 256.5 164.65 256.58 165.022 256.58C165.264 256.58 165.484 256.545 165.683 256.477C165.882 256.406 166.054 256.301 166.199 256.162C166.343 256.023 166.454 255.851 166.531 255.646L167.737 255.864C167.64 256.219 167.467 256.53 167.217 256.797C166.97 257.061 166.659 257.267 166.284 257.415C165.912 257.56 165.487 257.632 165.01 257.632ZM175.463 250.955V251.977H171.887V250.955H175.463ZM172.846 249.386H174.12V255.578C174.12 255.825 174.157 256.011 174.231 256.136C174.305 256.259 174.4 256.342 174.517 256.388C174.636 256.43 174.765 256.452 174.904 256.452C175.007 256.452 175.096 256.445 175.173 256.43C175.25 256.416 175.309 256.405 175.352 256.396L175.582 257.449C175.508 257.477 175.403 257.506 175.267 257.534C175.13 257.565 174.96 257.582 174.755 257.585C174.42 257.591 174.108 257.531 173.818 257.406C173.528 257.281 173.294 257.088 173.115 256.827C172.936 256.565 172.846 256.237 172.846 255.842V249.386ZM178.287 253.614V257.5H177.013V248.773H178.27V252.02H178.351C178.504 251.668 178.739 251.388 179.054 251.18C179.369 250.973 179.781 250.869 180.29 250.869C180.739 250.869 181.131 250.962 181.466 251.146C181.804 251.331 182.065 251.607 182.25 251.973C182.438 252.337 182.531 252.791 182.531 253.337V257.5H181.257V253.49C181.257 253.01 181.134 252.638 180.886 252.374C180.639 252.107 180.295 251.973 179.855 251.973C179.554 251.973 179.284 252.037 179.045 252.165C178.81 252.293 178.624 252.48 178.487 252.727C178.354 252.972 178.287 253.267 178.287 253.614ZM184.232 257.5V250.955H185.506V257.5H184.232ZM184.875 249.945C184.653 249.945 184.463 249.871 184.304 249.723C184.148 249.572 184.07 249.393 184.07 249.186C184.07 248.976 184.148 248.797 184.304 248.649C184.463 248.499 184.653 248.423 184.875 248.423C185.097 248.423 185.286 248.499 185.442 248.649C185.601 248.797 185.68 248.976 185.68 249.186C185.68 249.393 185.601 249.572 185.442 249.723C185.286 249.871 185.097 249.945 184.875 249.945ZM192.125 252.553L190.97 252.757C190.922 252.609 190.845 252.469 190.74 252.335C190.637 252.202 190.498 252.092 190.322 252.007C190.146 251.922 189.926 251.879 189.662 251.879C189.301 251.879 189 251.96 188.758 252.122C188.517 252.281 188.396 252.487 188.396 252.74C188.396 252.959 188.477 253.135 188.639 253.268C188.801 253.402 189.062 253.511 189.423 253.597L190.463 253.835C191.065 253.974 191.514 254.189 191.809 254.479C192.105 254.768 192.252 255.145 192.252 255.608C192.252 256 192.139 256.349 191.912 256.656C191.687 256.96 191.373 257.199 190.97 257.372C190.569 257.545 190.105 257.632 189.576 257.632C188.843 257.632 188.245 257.476 187.782 257.163C187.319 256.848 187.035 256.401 186.93 255.821L188.162 255.634C188.238 255.955 188.396 256.197 188.635 256.362C188.873 256.524 189.184 256.605 189.568 256.605C189.985 256.605 190.319 256.518 190.569 256.345C190.819 256.169 190.944 255.955 190.944 255.702C190.944 255.497 190.868 255.325 190.714 255.186C190.564 255.047 190.332 254.942 190.02 254.871L188.912 254.628C188.301 254.489 187.849 254.267 187.556 253.963C187.267 253.659 187.122 253.274 187.122 252.808C187.122 252.422 187.23 252.084 187.446 251.794C187.662 251.504 187.96 251.278 188.341 251.116C188.721 250.952 189.157 250.869 189.649 250.869C190.356 250.869 190.913 251.023 191.319 251.33C191.725 251.634 191.994 252.041 192.125 252.553ZM198.103 253.614V257.5H196.829V248.773H198.086V252.02H198.167C198.321 251.668 198.555 251.388 198.87 251.18C199.186 250.973 199.598 250.869 200.106 250.869C200.555 250.869 200.947 250.962 201.282 251.146C201.62 251.331 201.882 251.607 202.066 251.973C202.254 252.337 202.348 252.791 202.348 253.337V257.5H201.074V253.49C201.074 253.01 200.95 252.638 200.703 252.374C200.456 252.107 200.112 251.973 199.672 251.973C199.37 251.973 199.1 252.037 198.862 252.165C198.626 252.293 198.44 252.48 198.304 252.727C198.17 252.972 198.103 253.267 198.103 253.614ZM206.869 257.632C206.224 257.632 205.669 257.494 205.203 257.219C204.74 256.94 204.382 256.55 204.129 256.047C203.879 255.541 203.754 254.949 203.754 254.27C203.754 253.599 203.879 253.009 204.129 252.497C204.382 251.986 204.734 251.587 205.186 251.3C205.64 251.013 206.172 250.869 206.779 250.869C207.149 250.869 207.507 250.93 207.853 251.053C208.2 251.175 208.511 251.366 208.787 251.628C209.062 251.889 209.279 252.229 209.439 252.646C209.598 253.061 209.677 253.565 209.677 254.159V254.611H204.474V253.656H208.429C208.429 253.321 208.36 253.024 208.224 252.766C208.088 252.504 207.896 252.298 207.649 252.148C207.404 251.997 207.118 251.922 206.788 251.922C206.43 251.922 206.118 252.01 205.85 252.186C205.586 252.359 205.382 252.587 205.237 252.868C205.095 253.146 205.024 253.449 205.024 253.776V254.521C205.024 254.959 205.1 255.331 205.254 255.638C205.41 255.945 205.627 256.179 205.906 256.341C206.184 256.5 206.51 256.58 206.882 256.58C207.123 256.58 207.343 256.545 207.542 256.477C207.741 256.406 207.913 256.301 208.058 256.162C208.203 256.023 208.314 255.851 208.39 255.646L209.596 255.864C209.5 256.219 209.326 256.53 209.076 256.797C208.829 257.061 208.518 257.267 208.143 257.415C207.771 257.56 207.346 257.632 206.869 257.632ZM212.996 257.645C212.581 257.645 212.206 257.568 211.871 257.415C211.536 257.259 211.27 257.033 211.074 256.737C210.881 256.442 210.784 256.08 210.784 255.651C210.784 255.281 210.855 254.977 210.997 254.739C211.139 254.5 211.331 254.311 211.572 254.172C211.814 254.033 212.084 253.928 212.382 253.857C212.68 253.786 212.984 253.732 213.294 253.695C213.686 253.649 214.004 253.612 214.249 253.584C214.493 253.553 214.67 253.503 214.781 253.435C214.892 253.366 214.947 253.256 214.947 253.102V253.072C214.947 252.7 214.842 252.412 214.632 252.207C214.425 252.003 214.115 251.901 213.703 251.901C213.274 251.901 212.936 251.996 212.689 252.186C212.445 252.374 212.276 252.582 212.182 252.812L210.984 252.54C211.126 252.142 211.334 251.821 211.607 251.577C211.882 251.33 212.199 251.151 212.557 251.04C212.915 250.926 213.291 250.869 213.686 250.869C213.947 250.869 214.224 250.901 214.517 250.963C214.813 251.023 215.088 251.134 215.344 251.295C215.602 251.457 215.814 251.689 215.979 251.99C216.143 252.288 216.226 252.676 216.226 253.153V257.5H214.982V256.605H214.93C214.848 256.77 214.724 256.932 214.56 257.091C214.395 257.25 214.183 257.382 213.925 257.487C213.666 257.592 213.357 257.645 212.996 257.645ZM213.273 256.622C213.625 256.622 213.926 256.553 214.176 256.413C214.429 256.274 214.621 256.092 214.751 255.868C214.885 255.641 214.952 255.398 214.952 255.139V254.295C214.906 254.341 214.818 254.384 214.688 254.423C214.56 254.46 214.413 254.493 214.249 254.521C214.084 254.547 213.923 254.571 213.767 254.594C213.611 254.614 213.48 254.631 213.375 254.645C213.128 254.676 212.902 254.729 212.697 254.803C212.496 254.876 212.334 254.983 212.212 255.122C212.092 255.259 212.033 255.44 212.033 255.668C212.033 255.983 212.149 256.222 212.382 256.384C212.615 256.543 212.912 256.622 213.273 256.622ZM220.373 257.628C219.845 257.628 219.373 257.493 218.958 257.223C218.547 256.95 218.223 256.562 217.987 256.06C217.754 255.554 217.637 254.947 217.637 254.24C217.637 253.533 217.755 252.928 217.991 252.425C218.23 251.922 218.556 251.537 218.971 251.27C219.386 251.003 219.856 250.869 220.382 250.869C220.788 250.869 221.115 250.938 221.362 251.074C221.612 251.207 221.805 251.364 221.941 251.543C222.081 251.722 222.189 251.879 222.265 252.016H222.342V248.773H223.616V257.5H222.372V256.482H222.265C222.189 256.621 222.078 256.78 221.933 256.959C221.791 257.138 221.595 257.294 221.345 257.428C221.095 257.561 220.771 257.628 220.373 257.628ZM220.654 256.541C221.021 256.541 221.331 256.445 221.583 256.251C221.839 256.055 222.032 255.784 222.163 255.438C222.297 255.091 222.363 254.687 222.363 254.227C222.363 253.773 222.298 253.375 222.167 253.034C222.037 252.693 221.845 252.428 221.592 252.237C221.339 252.047 221.027 251.952 220.654 251.952C220.271 251.952 219.951 252.051 219.696 252.25C219.44 252.449 219.247 252.72 219.116 253.064C218.988 253.408 218.924 253.795 218.924 254.227C218.924 254.665 218.99 255.058 219.12 255.408C219.251 255.757 219.444 256.034 219.7 256.239C219.958 256.44 220.277 256.541 220.654 256.541ZM225.435 257.5V250.955H226.709V257.5H225.435ZM226.078 249.945C225.857 249.945 225.666 249.871 225.507 249.723C225.351 249.572 225.273 249.393 225.273 249.186C225.273 248.976 225.351 248.797 225.507 248.649C225.666 248.499 225.857 248.423 226.078 248.423C226.3 248.423 226.489 248.499 226.645 248.649C226.804 248.797 226.884 248.976 226.884 249.186C226.884 249.393 226.804 249.572 226.645 249.723C226.489 249.871 226.3 249.945 226.078 249.945ZM229.697 253.614V257.5H228.423V250.955H229.646V252.02H229.727C229.877 251.673 230.113 251.395 230.434 251.185C230.758 250.974 231.166 250.869 231.657 250.869C232.103 250.869 232.494 250.963 232.829 251.151C233.164 251.335 233.424 251.611 233.609 251.977C233.794 252.344 233.886 252.797 233.886 253.337V257.5H232.612V253.49C232.612 253.016 232.488 252.645 232.241 252.378C231.994 252.108 231.654 251.973 231.223 251.973C230.927 251.973 230.664 252.037 230.434 252.165C230.207 252.293 230.027 252.48 229.893 252.727C229.762 252.972 229.697 253.267 229.697 253.614ZM238.339 260.091C237.819 260.091 237.372 260.023 236.997 259.886C236.625 259.75 236.321 259.57 236.085 259.345C235.849 259.121 235.673 258.875 235.556 258.608L236.652 258.156C236.728 258.281 236.831 258.413 236.958 258.553C237.089 258.695 237.265 258.815 237.487 258.915C237.711 259.014 238 259.064 238.352 259.064C238.835 259.064 239.234 258.946 239.549 258.71C239.865 258.477 240.022 258.105 240.022 257.594V256.307H239.941C239.865 256.446 239.754 256.601 239.609 256.771C239.467 256.942 239.271 257.089 239.021 257.214C238.771 257.339 238.446 257.402 238.045 257.402C237.528 257.402 237.062 257.281 236.647 257.04C236.235 256.795 235.909 256.436 235.667 255.962C235.429 255.484 235.309 254.898 235.309 254.202C235.309 253.506 235.427 252.909 235.663 252.412C235.902 251.915 236.228 251.534 236.643 251.27C237.058 251.003 237.528 250.869 238.054 250.869C238.46 250.869 238.788 250.938 239.038 251.074C239.288 251.207 239.483 251.364 239.622 251.543C239.764 251.722 239.873 251.879 239.95 252.016H240.044V250.955H241.292V257.645C241.292 258.207 241.162 258.669 240.9 259.03C240.639 259.391 240.285 259.658 239.839 259.831C239.396 260.004 238.896 260.091 238.339 260.091ZM238.326 256.345C238.693 256.345 239.002 256.26 239.255 256.089C239.511 255.916 239.704 255.669 239.835 255.348C239.968 255.024 240.035 254.636 240.035 254.185C240.035 253.744 239.97 253.357 239.839 253.021C239.708 252.686 239.517 252.425 239.264 252.237C239.011 252.047 238.699 251.952 238.326 251.952C237.943 251.952 237.623 252.051 237.368 252.25C237.112 252.446 236.919 252.713 236.788 253.051C236.66 253.389 236.596 253.767 236.596 254.185C236.596 254.614 236.662 254.99 236.792 255.314C236.923 255.638 237.116 255.891 237.372 256.072C237.63 256.254 237.949 256.345 238.326 256.345ZM246.279 257.5V248.773H247.553V252.016H247.63C247.704 251.879 247.81 251.722 247.95 251.543C248.089 251.364 248.282 251.207 248.529 251.074C248.776 250.938 249.103 250.869 249.509 250.869C250.038 250.869 250.509 251.003 250.924 251.27C251.339 251.537 251.664 251.922 251.9 252.425C252.138 252.928 252.258 253.533 252.258 254.24C252.258 254.947 252.14 255.554 251.904 256.06C251.668 256.562 251.344 256.95 250.933 257.223C250.521 257.493 250.05 257.628 249.522 257.628C249.124 257.628 248.799 257.561 248.546 257.428C248.296 257.294 248.1 257.138 247.958 256.959C247.816 256.78 247.707 256.621 247.63 256.482H247.523V257.5H246.279ZM247.528 254.227C247.528 254.687 247.594 255.091 247.728 255.438C247.862 255.784 248.055 256.055 248.308 256.251C248.56 256.445 248.87 256.541 249.237 256.541C249.617 256.541 249.935 256.44 250.191 256.239C250.447 256.034 250.64 255.757 250.771 255.408C250.904 255.058 250.971 254.665 250.971 254.227C250.971 253.795 250.906 253.408 250.775 253.064C250.647 252.72 250.454 252.449 250.195 252.25C249.94 252.051 249.62 251.952 249.237 251.952C248.867 251.952 248.555 252.047 248.299 252.237C248.046 252.428 247.854 252.693 247.724 253.034C247.593 253.375 247.528 253.773 247.528 254.227ZM256.51 257.632C255.865 257.632 255.309 257.494 254.843 257.219C254.38 256.94 254.022 256.55 253.77 256.047C253.52 255.541 253.395 254.949 253.395 254.27C253.395 253.599 253.52 253.009 253.77 252.497C254.022 251.986 254.375 251.587 254.826 251.3C255.281 251.013 255.812 250.869 256.42 250.869C256.789 250.869 257.147 250.93 257.494 251.053C257.841 251.175 258.152 251.366 258.427 251.628C258.703 251.889 258.92 252.229 259.079 252.646C259.238 253.061 259.318 253.565 259.318 254.159V254.611H254.115V253.656H258.069C258.069 253.321 258.001 253.024 257.865 252.766C257.728 252.504 257.537 252.298 257.289 252.148C257.045 251.997 256.758 251.922 256.429 251.922C256.071 251.922 255.758 252.01 255.491 252.186C255.227 252.359 255.022 252.587 254.877 252.868C254.735 253.146 254.664 253.449 254.664 253.776V254.521C254.664 254.959 254.741 255.331 254.895 255.638C255.051 255.945 255.268 256.179 255.547 256.341C255.825 256.5 256.15 256.58 256.522 256.58C256.764 256.58 256.984 256.545 257.183 256.477C257.382 256.406 257.554 256.301 257.699 256.162C257.843 256.023 257.954 255.851 258.031 255.646L259.237 255.864C259.14 256.219 258.967 256.53 258.717 256.797C258.47 257.061 258.159 257.267 257.784 257.415C257.412 257.56 256.987 257.632 256.51 257.632ZM263.847 250.955V251.977H260.148V250.955H263.847ZM261.162 257.5V250.196C261.162 249.787 261.251 249.447 261.43 249.178C261.609 248.905 261.847 248.702 262.142 248.568C262.438 248.432 262.759 248.364 263.105 248.364C263.361 248.364 263.58 248.385 263.761 248.428C263.943 248.467 264.078 248.504 264.166 248.538L263.868 249.57C263.808 249.553 263.732 249.533 263.638 249.51C263.544 249.484 263.43 249.472 263.297 249.472C262.987 249.472 262.766 249.548 262.632 249.702C262.501 249.855 262.436 250.077 262.436 250.366V257.5H261.162ZM267.661 257.632C267.047 257.632 266.511 257.491 266.054 257.21C265.597 256.929 265.241 256.536 264.989 256.03C264.736 255.524 264.609 254.933 264.609 254.257C264.609 253.578 264.736 252.984 264.989 252.476C265.241 251.967 265.597 251.572 266.054 251.291C266.511 251.01 267.047 250.869 267.661 250.869C268.274 250.869 268.81 251.01 269.267 251.291C269.724 251.572 270.08 251.967 270.332 252.476C270.585 252.984 270.712 253.578 270.712 254.257C270.712 254.933 270.585 255.524 270.332 256.03C270.08 256.536 269.724 256.929 269.267 257.21C268.81 257.491 268.274 257.632 267.661 257.632ZM267.665 256.562C268.063 256.562 268.392 256.457 268.653 256.247C268.915 256.037 269.108 255.757 269.233 255.408C269.361 255.058 269.425 254.673 269.425 254.253C269.425 253.835 269.361 253.452 269.233 253.102C269.108 252.75 268.915 252.467 268.653 252.254C268.392 252.041 268.063 251.935 267.665 251.935C267.264 251.935 266.932 252.041 266.668 252.254C266.406 252.467 266.212 252.75 266.084 253.102C265.959 253.452 265.896 253.835 265.896 254.253C265.896 254.673 265.959 255.058 266.084 255.408C266.212 255.757 266.406 256.037 266.668 256.247C266.932 256.457 267.264 256.562 267.665 256.562ZM272.134 257.5V250.955H273.365V251.994H273.434C273.553 251.642 273.763 251.365 274.064 251.163C274.368 250.959 274.712 250.857 275.096 250.857C275.175 250.857 275.269 250.859 275.377 250.865C275.488 250.871 275.574 250.878 275.637 250.886V252.105C275.586 252.091 275.495 252.075 275.364 252.058C275.233 252.038 275.103 252.028 274.972 252.028C274.671 252.028 274.402 252.092 274.167 252.22C273.934 252.345 273.749 252.52 273.613 252.744C273.476 252.966 273.408 253.219 273.408 253.503V257.5H272.134ZM279.326 257.632C278.681 257.632 278.126 257.494 277.66 257.219C277.197 256.94 276.839 256.55 276.586 256.047C276.336 255.541 276.211 254.949 276.211 254.27C276.211 253.599 276.336 253.009 276.586 252.497C276.839 251.986 277.191 251.587 277.643 251.3C278.097 251.013 278.629 250.869 279.237 250.869C279.606 250.869 279.964 250.93 280.31 251.053C280.657 251.175 280.968 251.366 281.244 251.628C281.519 251.889 281.737 252.229 281.896 252.646C282.055 253.061 282.134 253.565 282.134 254.159V254.611H276.931V253.656H280.886C280.886 253.321 280.817 253.024 280.681 252.766C280.545 252.504 280.353 252.298 280.106 252.148C279.862 251.997 279.575 251.922 279.245 251.922C278.887 251.922 278.575 252.01 278.308 252.186C278.043 252.359 277.839 252.587 277.694 252.868C277.552 253.146 277.481 253.449 277.481 253.776V254.521C277.481 254.959 277.558 255.331 277.711 255.638C277.867 255.945 278.085 256.179 278.363 256.341C278.641 256.5 278.967 256.58 279.339 256.58C279.58 256.58 279.8 256.545 279.999 256.477C280.198 256.406 280.37 256.301 280.515 256.162C280.66 256.023 280.771 255.851 280.847 255.646L282.053 255.864C281.957 256.219 281.783 256.53 281.533 256.797C281.286 257.061 280.975 257.267 280.6 257.415C280.228 257.56 279.803 257.632 279.326 257.632ZM287.998 248.773V257.5H286.724V248.773H287.998ZM291.617 257.645C291.202 257.645 290.827 257.568 290.492 257.415C290.157 257.259 289.891 257.033 289.695 256.737C289.502 256.442 289.405 256.08 289.405 255.651C289.405 255.281 289.476 254.977 289.618 254.739C289.76 254.5 289.952 254.311 290.194 254.172C290.435 254.033 290.705 253.928 291.003 253.857C291.301 253.786 291.605 253.732 291.915 253.695C292.307 253.649 292.625 253.612 292.87 253.584C293.114 253.553 293.292 253.503 293.402 253.435C293.513 253.366 293.569 253.256 293.569 253.102V253.072C293.569 252.7 293.463 252.412 293.253 252.207C293.046 252.003 292.736 251.901 292.324 251.901C291.895 251.901 291.557 251.996 291.31 252.186C291.066 252.374 290.897 252.582 290.803 252.812L289.605 252.54C289.748 252.142 289.955 251.821 290.228 251.577C290.503 251.33 290.82 251.151 291.178 251.04C291.536 250.926 291.912 250.869 292.307 250.869C292.569 250.869 292.846 250.901 293.138 250.963C293.434 251.023 293.709 251.134 293.965 251.295C294.223 251.457 294.435 251.689 294.6 251.99C294.765 252.288 294.847 252.676 294.847 253.153V257.5H293.603V256.605H293.551C293.469 256.77 293.346 256.932 293.181 257.091C293.016 257.25 292.804 257.382 292.546 257.487C292.287 257.592 291.978 257.645 291.617 257.645ZM291.894 256.622C292.246 256.622 292.547 256.553 292.797 256.413C293.05 256.274 293.242 256.092 293.373 255.868C293.506 255.641 293.573 255.398 293.573 255.139V254.295C293.527 254.341 293.439 254.384 293.309 254.423C293.181 254.46 293.034 254.493 292.87 254.521C292.705 254.547 292.544 254.571 292.388 254.594C292.232 254.614 292.101 254.631 291.996 254.645C291.749 254.676 291.523 254.729 291.319 254.803C291.117 254.876 290.955 254.983 290.833 255.122C290.713 255.259 290.654 255.44 290.654 255.668C290.654 255.983 290.77 256.222 291.003 256.384C291.236 256.543 291.533 256.622 291.894 256.622ZM300.69 254.786V250.955H301.969V257.5H300.716V256.366H300.648C300.497 256.716 300.256 257.007 299.923 257.24C299.594 257.47 299.183 257.585 298.692 257.585C298.271 257.585 297.899 257.493 297.575 257.308C297.254 257.121 297.001 256.844 296.817 256.477C296.635 256.111 296.544 255.658 296.544 255.118V250.955H297.818V254.964C297.818 255.411 297.942 255.766 298.189 256.03C298.436 256.294 298.757 256.426 299.152 256.426C299.391 256.426 299.628 256.366 299.864 256.247C300.102 256.128 300.3 255.947 300.456 255.706C300.615 255.464 300.693 255.158 300.69 254.786ZM304.955 253.614V257.5H303.681V250.955H304.904V252.02H304.985C305.135 251.673 305.371 251.395 305.692 251.185C306.016 250.974 306.424 250.869 306.915 250.869C307.361 250.869 307.752 250.963 308.087 251.151C308.422 251.335 308.682 251.611 308.867 251.977C309.051 252.344 309.144 252.797 309.144 253.337V257.5H307.87V253.49C307.87 253.016 307.746 252.645 307.499 252.378C307.252 252.108 306.912 251.973 306.48 251.973C306.185 251.973 305.922 252.037 305.692 252.165C305.465 252.293 305.284 252.48 305.151 252.727C305.02 252.972 304.955 253.267 304.955 253.614ZM313.61 257.632C312.976 257.632 312.431 257.489 311.973 257.202C311.519 256.912 311.169 256.513 310.925 256.004C310.681 255.496 310.559 254.913 310.559 254.257C310.559 253.592 310.684 253.006 310.934 252.497C311.184 251.986 311.536 251.587 311.99 251.3C312.445 251.013 312.98 250.869 313.597 250.869C314.094 250.869 314.537 250.962 314.926 251.146C315.316 251.328 315.63 251.584 315.868 251.913C316.11 252.243 316.253 252.628 316.299 253.068H315.059C314.99 252.761 314.834 252.497 314.59 252.276C314.348 252.054 314.025 251.943 313.618 251.943C313.263 251.943 312.952 252.037 312.685 252.224C312.421 252.409 312.215 252.673 312.067 253.017C311.919 253.358 311.846 253.761 311.846 254.227C311.846 254.705 311.918 255.116 312.063 255.463C312.208 255.81 312.412 256.078 312.676 256.268C312.944 256.459 313.257 256.554 313.618 256.554C313.86 256.554 314.078 256.51 314.275 256.422C314.473 256.331 314.64 256.202 314.773 256.034C314.909 255.866 315.005 255.665 315.059 255.429H316.299C316.253 255.852 316.115 256.23 315.885 256.562C315.655 256.895 315.347 257.156 314.961 257.347C314.577 257.537 314.127 257.632 313.61 257.632ZM318.935 253.614V257.5H317.661V248.773H318.918V252.02H318.999C319.153 251.668 319.387 251.388 319.702 251.18C320.018 250.973 320.43 250.869 320.938 250.869C321.387 250.869 321.779 250.962 322.114 251.146C322.452 251.331 322.714 251.607 322.898 251.973C323.086 252.337 323.18 252.791 323.18 253.337V257.5H321.906V253.49C321.906 253.01 321.782 252.638 321.535 252.374C321.288 252.107 320.944 251.973 320.504 251.973C320.202 251.973 319.933 252.037 319.694 252.165C319.458 252.293 319.272 252.48 319.136 252.727C319.002 252.972 318.935 253.267 318.935 253.614Z" fill="#A1A1AA"/>
<g filter="url(#filter1_dd_1_353)">
<g filter="url(#filter2_dd_1_353)">
<rect x="51" y="283" width="61" height="24" rx="7.2" fill="#7E57C2" fill-opacity="0.8"/>
<rect x="51.6" y="283.6" width="59.8" height="22.8" rx="6.6" stroke="#A78BFA" stroke-width="1.2"/>
<path d="M64.9531 292.565C64.9077 292.162 64.7202 291.849 64.3906 291.628C64.0611 291.403 63.6463 291.291 63.1463 291.291C62.7884 291.291 62.4787 291.348 62.2173 291.462C61.956 291.572 61.7528 291.726 61.608 291.922C61.4659 292.115 61.3949 292.335 61.3949 292.582C61.3949 292.79 61.4432 292.969 61.5398 293.119C61.6392 293.27 61.7685 293.396 61.9276 293.499C62.0895 293.598 62.2628 293.682 62.4474 293.75C62.6321 293.815 62.8097 293.869 62.9801 293.912L63.8324 294.134C64.1108 294.202 64.3963 294.294 64.6889 294.411C64.9815 294.527 65.2528 294.68 65.5028 294.871C65.7528 295.061 65.9545 295.297 66.108 295.578C66.2642 295.859 66.3423 296.196 66.3423 296.588C66.3423 297.082 66.2145 297.521 65.9588 297.905C65.706 298.288 65.3381 298.591 64.8551 298.812C64.375 299.034 63.794 299.145 63.1122 299.145C62.4588 299.145 61.8935 299.041 61.4162 298.834C60.9389 298.626 60.5653 298.332 60.2955 297.952C60.0256 297.568 59.8764 297.114 59.848 296.588H61.169C61.1946 296.903 61.2969 297.166 61.4759 297.376C61.6577 297.584 61.8892 297.739 62.1705 297.841C62.4545 297.94 62.7656 297.99 63.1037 297.99C63.4759 297.99 63.8068 297.932 64.0966 297.815C64.3892 297.696 64.6193 297.531 64.7869 297.321C64.9545 297.108 65.0384 296.859 65.0384 296.575C65.0384 296.317 64.9645 296.105 64.8168 295.94C64.6719 295.776 64.4744 295.639 64.2244 295.531C63.9773 295.423 63.6974 295.328 63.3849 295.246L62.3537 294.964C61.6548 294.774 61.1009 294.494 60.6918 294.125C60.2855 293.756 60.0824 293.267 60.0824 292.659C60.0824 292.156 60.2188 291.717 60.4915 291.342C60.7642 290.967 61.1335 290.676 61.5994 290.469C62.0653 290.259 62.5909 290.153 63.1761 290.153C63.767 290.153 64.2884 290.257 64.7401 290.464C65.1946 290.672 65.5526 290.957 65.8139 291.321C66.0753 291.682 66.2116 292.097 66.223 292.565H64.9531ZM70.5707 299.132C69.957 299.132 69.4215 298.991 68.9641 298.71C68.5067 298.429 68.1516 298.036 67.8988 297.53C67.646 297.024 67.5195 296.433 67.5195 295.757C67.5195 295.078 67.646 294.484 67.8988 293.976C68.1516 293.467 68.5067 293.072 68.9641 292.791C69.4215 292.51 69.957 292.369 70.5707 292.369C71.1843 292.369 71.7198 292.51 72.1772 292.791C72.6346 293.072 72.9897 293.467 73.2425 293.976C73.4954 294.484 73.6218 295.078 73.6218 295.757C73.6218 296.433 73.4954 297.024 73.2425 297.53C72.9897 298.036 72.6346 298.429 72.1772 298.71C71.7198 298.991 71.1843 299.132 70.5707 299.132ZM70.5749 298.062C70.9727 298.062 71.3022 297.957 71.5636 297.747C71.8249 297.537 72.0181 297.257 72.1431 296.908C72.271 296.558 72.3349 296.173 72.3349 295.753C72.3349 295.335 72.271 294.952 72.1431 294.602C72.0181 294.25 71.8249 293.967 71.5636 293.754C71.3022 293.541 70.9727 293.435 70.5749 293.435C70.1744 293.435 69.842 293.541 69.5778 293.754C69.3164 293.967 69.1218 294.25 68.994 294.602C68.869 294.952 68.8065 295.335 68.8065 295.753C68.8065 296.173 68.869 296.558 68.994 296.908C69.1218 297.257 69.3164 297.537 69.5778 297.747C69.842 297.957 70.1744 298.062 70.5749 298.062ZM78.1591 292.455V293.477H74.4602V292.455H78.1591ZM75.4744 299V291.696C75.4744 291.287 75.5639 290.947 75.7429 290.678C75.9219 290.405 76.1591 290.202 76.4545 290.068C76.75 289.932 77.071 289.864 77.4176 289.864C77.6733 289.864 77.892 289.885 78.0739 289.928C78.2557 289.967 78.3906 290.004 78.4787 290.038L78.1804 291.07C78.1207 291.053 78.044 291.033 77.9503 291.01C77.8565 290.984 77.7429 290.972 77.6094 290.972C77.2997 290.972 77.0781 291.048 76.9446 291.202C76.8139 291.355 76.7486 291.577 76.7486 291.866V299H75.4744ZM79.4737 299V292.455H80.7479V299H79.4737ZM80.1172 291.445C79.8956 291.445 79.7053 291.371 79.5462 291.223C79.3899 291.072 79.3118 290.893 79.3118 290.686C79.3118 290.476 79.3899 290.297 79.5462 290.149C79.7053 289.999 79.8956 289.923 80.1172 289.923C80.3388 289.923 80.5277 289.999 80.6839 290.149C80.843 290.297 80.9226 290.476 80.9226 290.686C80.9226 290.893 80.843 291.072 80.6839 291.223C80.5277 291.371 80.3388 291.445 80.1172 291.445ZM84.3668 299.145C83.9521 299.145 83.5771 299.068 83.2418 298.915C82.9066 298.759 82.641 298.533 82.445 298.237C82.2518 297.942 82.1552 297.58 82.1552 297.151C82.1552 296.781 82.2262 296.477 82.3683 296.239C82.5103 296 82.7021 295.811 82.9435 295.672C83.185 295.533 83.4549 295.428 83.7532 295.357C84.0515 295.286 84.3555 295.232 84.6651 295.195C85.0572 295.149 85.3754 295.112 85.6197 295.084C85.864 295.053 86.0415 295.003 86.1523 294.935C86.2631 294.866 86.3185 294.756 86.3185 294.602V294.572C86.3185 294.2 86.2134 293.912 86.0032 293.707C85.7958 293.503 85.4862 293.401 85.0742 293.401C84.6452 293.401 84.3072 293.496 84.06 293.686C83.8157 293.874 83.6467 294.082 83.5529 294.312L82.3555 294.04C82.4975 293.642 82.7049 293.321 82.9776 293.077C83.2532 292.83 83.57 292.651 83.9279 292.54C84.2859 292.426 84.6623 292.369 85.0572 292.369C85.3185 292.369 85.5955 292.401 85.8881 292.463C86.1836 292.523 86.4592 292.634 86.7148 292.795C86.9734 292.957 87.185 293.189 87.3498 293.49C87.5146 293.788 87.5969 294.176 87.5969 294.653V299H86.3526V298.105H86.3015C86.2191 298.27 86.0955 298.432 85.9308 298.591C85.766 298.75 85.5543 298.882 85.2958 298.987C85.0373 299.092 84.7276 299.145 84.3668 299.145ZM84.6438 298.122C84.9961 298.122 85.2972 298.053 85.5472 297.913C85.8001 297.774 85.9918 297.592 86.1225 297.368C86.256 297.141 86.3228 296.898 86.3228 296.639V295.795C86.2773 295.841 86.1893 295.884 86.0586 295.923C85.9308 295.96 85.7844 295.993 85.6197 296.021C85.4549 296.047 85.2944 296.071 85.1381 296.094C84.9819 296.114 84.8512 296.131 84.7461 296.145C84.4989 296.176 84.2731 296.229 84.0685 296.303C83.8668 296.376 83.7049 296.483 83.5827 296.622C83.4634 296.759 83.4038 296.94 83.4038 297.168C83.4038 297.483 83.5202 297.722 83.7532 297.884C83.9862 298.043 84.283 298.122 84.6438 298.122ZM98.4783 293.03C98.396 292.771 98.2852 292.54 98.146 292.335C98.0096 292.128 97.8462 291.952 97.6559 291.807C97.4656 291.659 97.2482 291.547 97.0039 291.47C96.7624 291.393 96.4968 291.355 96.207 291.355C95.7156 291.355 95.2724 291.482 94.8775 291.734C94.4826 291.987 94.1701 292.358 93.94 292.847C93.7127 293.332 93.5991 293.928 93.5991 294.632C93.5991 295.339 93.7141 295.937 93.9442 296.426C94.1744 296.915 94.4897 297.286 94.8903 297.538C95.2908 297.791 95.7468 297.918 96.2582 297.918C96.7326 297.918 97.146 297.821 97.4982 297.628C97.8533 297.435 98.1275 297.162 98.3207 296.81C98.5167 296.455 98.6147 296.037 98.6147 295.557L98.9556 295.621H96.4585V294.534H99.8888V295.527C99.8888 296.26 99.7326 296.896 99.4201 297.436C99.1104 297.973 98.6815 298.388 98.1332 298.68C97.5877 298.973 96.9627 299.119 96.2582 299.119C95.4684 299.119 94.7752 298.938 94.1786 298.574C93.5849 298.21 93.1218 297.695 92.7894 297.027C92.457 296.357 92.2908 295.561 92.2908 294.641C92.2908 293.945 92.3874 293.32 92.5806 292.766C92.7738 292.212 93.0451 291.741 93.3945 291.355C93.7468 290.966 94.1602 290.669 94.6346 290.464C95.1119 290.257 95.6332 290.153 96.1985 290.153C96.6701 290.153 97.109 290.223 97.5153 290.362C97.9244 290.501 98.288 290.699 98.6062 290.955C98.9272 291.21 99.1928 291.514 99.4031 291.866C99.6133 292.216 99.7553 292.604 99.8292 293.03H98.4783ZM102.298 299.081C102.065 299.081 101.864 298.999 101.697 298.834C101.529 298.666 101.445 298.464 101.445 298.229C101.445 297.996 101.529 297.797 101.697 297.632C101.864 297.464 102.065 297.381 102.298 297.381C102.531 297.381 102.731 297.464 102.898 297.632C103.066 297.797 103.15 297.996 103.15 298.229C103.15 298.385 103.11 298.528 103.031 298.659C102.954 298.787 102.852 298.889 102.724 298.966C102.596 299.043 102.454 299.081 102.298 299.081Z" fill="#FAFAFA"/>
</g>
</g>
<g opacity="0.5">
<g opacity="0.7" filter="url(#filter3_f_1_353)">
<circle cx="180" cy="180" r="180" transform="matrix(-1 0 0 1 460 180)" fill="#4F46E5" fill-opacity="0.6"/>
</g>
</g>
<defs>
<filter id="filter0_dd_1_353" x="327" y="444" width="93" height="64" filterUnits="userSpaceOnUse" color-interpolation-filters="sRGB">
<feFlood flood-opacity="0" result="BackgroundImageFix"/>
<feColorMatrix in="SourceAlpha" type="matrix" values="0 0 0 0 0 0 0 0 0 0 0 0 0 0 0 0 0 0 127 0" result="hardAlpha"/>
<feMorphology radius="5" operator="erode" in="SourceAlpha" result="effect1_dropShadow_1_353"/>
<feOffset dy="20"/>
<feGaussianBlur stdDeviation="12.5"/>
<feComposite in2="hardAlpha" operator="out"/>
<feColorMatrix type="matrix" values="0 0 0 0 0 0 0 0 0 0 0 0 0 0 0 0 0 0 0.1 0"/>
<feBlend mode="normal" in2="BackgroundImageFix" result="effect1_dropShadow_1_353"/>
<feColorMatrix in="SourceAlpha" type="matrix" values="0 0 0 0 0 0 0 0 0 0 0 0 0 0 0 0 0 0 127 0" result="hardAlpha"/>
<feMorphology radius="6" operator="erode" in="SourceAlpha" result="effect2_dropShadow_1_353"/>
<feOffset dy="8"/>
<feGaussianBlur stdDeviation="5"/>
<feComposite in2="hardAlpha" operator="out"/>
<feColorMatrix type="matrix" values="0 0 0 0 0 0 0 0 0 0 0 0 0 0 0 0 0 0 0.1 0"/>
<feBlend mode="normal" in2="effect1_dropShadow_1_353" result="effect2_dropShadow_1_353"/>
<feBlend mode="normal" in="SourceGraphic" in2="effect2_dropShadow_1_353" result="shape"/>
</filter>
<filter id="filter1_dd_1_353" x="31" y="283" width="101" height="64" filterUnits="userSpaceOnUse" color-interpolation-filters="sRGB">
<feFlood flood-opacity="0" result="BackgroundImageFix"/>
<feColorMatrix in="SourceAlpha" type="matrix" values="0 0 0 0 0 0 0 0 0 0 0 0 0 0 0 0 0 0 127 0" result="hardAlpha"/>
<feMorphology radius="5" operator="erode" in="SourceAlpha" result="effect1_dropShadow_1_353"/>
<feOffset dy="20"/>
<feGaussianBlur stdDeviation="12.5"/>
<feComposite in2="hardAlpha" operator="out"/>
<feColorMatrix type="matrix" values="0 0 0 0 0 0 0 0 0 0 0 0 0 0 0 0 0 0 0.1 0"/>
<feBlend mode="normal" in2="BackgroundImageFix" result="effect1_dropShadow_1_353"/>
<feColorMatrix in="SourceAlpha" type="matrix" values="0 0 0 0 0 0 0 0 0 0 0 0 0 0 0 0 0 0 127 0" result="hardAlpha"/>
<feMorphology radius="6" operator="erode" in="SourceAlpha" result="effect2_dropShadow_1_353"/>
<feOffset dy="8"/>
<feGaussianBlur stdDeviation="5"/>
<feComposite in2="hardAlpha" operator="out"/>
<feColorMatrix type="matrix" values="0 0 0 0 0 0 0 0 0 0 0 0 0 0 0 0 0 0 0.1 0"/>
<feBlend mode="normal" in2="effect1_dropShadow_1_353" result="effect2_dropShadow_1_353"/>
<feBlend mode="normal" in="SourceGraphic" in2="effect2_dropShadow_1_353" result="shape"/>
</filter>
<filter id="filter2_dd_1_353" x="-13" y="219" width="189" height="152" filterUnits="userSpaceOnUse" color-interpolation-filters="sRGB">
<feFlood flood-opacity="0" result="BackgroundImageFix"/>
<feColorMatrix in="SourceAlpha" type="matrix" values="0 0 0 0 0 0 0 0 0 0 0 0 0 0 0 0 0 0 127 0" result="hardAlpha"/>
<feOffset/>
<feGaussianBlur stdDeviation="32"/>
<feColorMatrix type="matrix" values="0 0 0 0 0.309804 0 0 0 0 0.27451 0 0 0 0 0.898039 0 0 0 1 0"/>
<feBlend mode="normal" in2="BackgroundImageFix" result="effect1_dropShadow_1_353"/>
<feColorMatrix in="SourceAlpha" type="matrix" values="0 0 0 0 0 0 0 0 0 0 0 0 0 0 0 0 0 0 127 0" result="hardAlpha"/>
<feOffset/>
<feGaussianBlur stdDeviation="4"/>
<feColorMatrix type="matrix" values="0 0 0 0 0.654902 0 0 0 0 0.545098 0 0 0 0 0.980392 0 0 0 0.8 0"/>
<feBlend mode="normal" in2="effect1_dropShadow_1_353" result="effect2_dropShadow_1_353"/>
<feBlend mode="normal" in="SourceGraphic" in2="effect2_dropShadow_1_353" result="shape"/>
</filter>
<filter id="filter3_f_1_353" x="-300" y="-220" width="1160" height="1160" filterUnits="userSpaceOnUse" color-interpolation-filters="sRGB">
<feFlood flood-opacity="0" result="BackgroundImageFix"/>
<feBlend mode="normal" in="SourceGraphic" in2="BackgroundImageFix" result="shape"/>
<feGaussianBlur stdDeviation="200" result="effect1_foregroundBlur_1_353"/>
</filter>
<linearGradient id="paint0_linear_1_353" x1="384" y1="408.5" x2="384" y2="376.5" gradientUnits="userSpaceOnUse">
<stop stop-color="#09090B" stop-opacity="0.05"/>
<stop offset="1" stop-color="#09090B" stop-opacity="0.1"/>
</linearGradient>
<linearGradient id="paint1_linear_1_353" x1="384" y1="376.5" x2="384" y2="408.5" gradientUnits="userSpaceOnUse">
<stop stop-color="#09090B" stop-opacity="0.2"/>
<stop offset="0.16" stop-color="#09090B" stop-opacity="0.05"/>
<stop offset="0.86" stop-color="#09090B" stop-opacity="0.05"/>
<stop offset="1" stop-color="#09090B" stop-opacity="0"/>
</linearGradient>
<linearGradient id="paint2_linear_1_353" x1="483" y1="448.5" x2="483" y2="416.5" gradientUnits="userSpaceOnUse">
<stop stop-color="#09090B" stop-opacity="0.05"/>
<stop offset="1" stop-color="#09090B" stop-opacity="0.1"/>
</linearGradient>
<linearGradient id="paint3_linear_1_353" x1="483" y1="416.5" x2="483" y2="448.5" gradientUnits="userSpaceOnUse">
<stop stop-color="#09090B" stop-opacity="0.2"/>
<stop offset="0.16" stop-color="#09090B" stop-opacity="0.05"/>
<stop offset="0.86" stop-color="#09090B" stop-opacity="0.05"/>
<stop offset="1" stop-color="#09090B" stop-opacity="0"/>
</linearGradient>
<linearGradient id="paint4_linear_1_353" x1="192.5" y1="269.5" x2="192.5" y2="237.5" gradientUnits="userSpaceOnUse">
<stop stop-color="#09090B" stop-opacity="0.05"/>
<stop offset="1" stop-color="#09090B" stop-opacity="0.1"/>
</linearGradient>
<linearGradient id="paint5_linear_1_353" x1="192.5" y1="237.5" x2="192.5" y2="269.5" gradientUnits="userSpaceOnUse">
<stop stop-color="#09090B" stop-opacity="0.2"/>
<stop offset="0.16" stop-color="#09090B" stop-opacity="0.05"/>
<stop offset="0.86" stop-color="#09090B" stop-opacity="0.05"/>
<stop offset="1" stop-color="#09090B" stop-opacity="0"/>
</linearGradient>
</defs>
</svg>
