<svg width="119" height="44" viewBox="0 0 119 44" fill="none" xmlns="http://www.w3.org/2000/svg">
<rect x="1.10059" y="0.5" width="117" height="43" rx="7.5" fill="url(#paint0_linear_1_1578)"/>
<rect x="1.10059" y="0.5" width="117" height="43" rx="7.5" stroke="url(#paint1_linear_1_1578)"/>
<path d="M23.2466 25.712H26.5366V27H21.6506V17.27H23.2466V25.712ZM34.9413 22.954C34.9413 23.2433 34.9226 23.5047 34.8853 23.738H28.9913C29.038 24.354 29.2666 24.8487 29.6773 25.222C30.088 25.5953 30.592 25.782 31.1893 25.782C32.048 25.782 32.6546 25.4227 33.0093 24.704H34.7313C34.498 25.4133 34.0733 25.9967 33.4573 26.454C32.8506 26.902 32.0946 27.126 31.1893 27.126C30.452 27.126 29.7893 26.9627 29.2013 26.636C28.6226 26.3 28.1653 25.8333 27.8293 25.236C27.5026 24.6293 27.3393 23.9293 27.3393 23.136C27.3393 22.3427 27.498 21.6473 27.8153 21.05C28.142 20.4433 28.5946 19.9767 29.1733 19.65C29.7613 19.3233 30.4333 19.16 31.1893 19.16C31.9173 19.16 32.566 19.3187 33.1353 19.636C33.7046 19.9533 34.148 20.4013 34.4653 20.98C34.7826 21.5493 34.9413 22.2073 34.9413 22.954ZM33.2753 22.45C33.266 21.862 33.056 21.3907 32.6453 21.036C32.2346 20.6813 31.726 20.504 31.1193 20.504C30.5686 20.504 30.0973 20.6813 29.7053 21.036C29.3133 21.3813 29.08 21.8527 29.0053 22.45H33.2753ZM35.9799 23.108C35.9799 22.3333 36.1386 21.6473 36.4559 21.05C36.7826 20.4527 37.2212 19.9907 37.7719 19.664C38.3319 19.328 38.9479 19.16 39.6199 19.16C40.2266 19.16 40.7539 19.2813 41.2019 19.524C41.6592 19.7573 42.0232 20.0513 42.2939 20.406V19.286H43.9039V27H42.2939V25.852C42.0232 26.216 41.6546 26.5193 41.1879 26.762C40.7212 27.0047 40.1892 27.126 39.5919 27.126C38.9292 27.126 38.3226 26.958 37.7719 26.622C37.2212 26.2767 36.7826 25.8007 36.4559 25.194C36.1386 24.578 35.9799 23.8827 35.9799 23.108ZM42.2939 23.136C42.2939 22.604 42.1819 22.142 41.9579 21.75C41.7432 21.358 41.4586 21.0593 41.1039 20.854C40.7492 20.6487 40.3666 20.546 39.9559 20.546C39.5452 20.546 39.1626 20.6487 38.8079 20.854C38.4532 21.05 38.1639 21.344 37.9399 21.736C37.7252 22.1187 37.6179 22.576 37.6179 23.108C37.6179 23.64 37.7252 24.1067 37.9399 24.508C38.1639 24.9093 38.4532 25.2173 38.8079 25.432C39.1719 25.6373 39.5546 25.74 39.9559 25.74C40.3666 25.74 40.7492 25.6373 41.1039 25.432C41.4586 25.2267 41.7432 24.928 41.9579 24.536C42.1819 24.1347 42.2939 23.668 42.2939 23.136ZM47.5962 20.406C47.8295 20.014 48.1375 19.7107 48.5202 19.496C48.9122 19.272 49.3742 19.16 49.9062 19.16V20.812H49.5002C48.8749 20.812 48.3989 20.9707 48.0722 21.288C47.7549 21.6053 47.5962 22.156 47.5962 22.94V27H46.0002V19.286H47.5962V20.406ZM55.2652 19.16C55.8719 19.16 56.4132 19.286 56.8892 19.538C57.3746 19.79 57.7526 20.1633 58.0232 20.658C58.2939 21.1527 58.4292 21.75 58.4292 22.45V27H56.8472V22.688C56.8472 21.9973 56.6746 21.47 56.3292 21.106C55.9839 20.7327 55.5126 20.546 54.9152 20.546C54.3179 20.546 53.8419 20.7327 53.4872 21.106C53.1419 21.47 52.9692 21.9973 52.9692 22.688V27H51.3732V19.286H52.9692V20.168C53.2306 19.8507 53.5619 19.6033 53.9632 19.426C54.3739 19.2487 54.8079 19.16 55.2652 19.16ZM74.3498 17.27V27H72.7538V20.336L69.7858 27H68.6798L65.6978 20.336V27H64.1018V17.27H65.8238L69.2398 24.9L72.6418 17.27H74.3498ZM79.7935 27.126C79.0655 27.126 78.4075 26.9627 77.8195 26.636C77.2315 26.3 76.7695 25.8333 76.4335 25.236C76.0975 24.6293 75.9295 23.9293 75.9295 23.136C75.9295 22.352 76.1021 21.6567 76.4475 21.05C76.7928 20.4433 77.2641 19.9767 77.8615 19.65C78.4588 19.3233 79.1261 19.16 79.8635 19.16C80.6008 19.16 81.2681 19.3233 81.8655 19.65C82.4628 19.9767 82.9341 20.4433 83.2795 21.05C83.6248 21.6567 83.7975 22.352 83.7975 23.136C83.7975 23.92 83.6201 24.6153 83.2655 25.222C82.9108 25.8287 82.4255 26.3 81.8095 26.636C81.2028 26.9627 80.5308 27.126 79.7935 27.126ZM79.7935 25.74C80.2041 25.74 80.5868 25.642 80.9415 25.446C81.3055 25.25 81.5995 24.956 81.8235 24.564C82.0475 24.172 82.1595 23.696 82.1595 23.136C82.1595 22.576 82.0521 22.1047 81.8375 21.722C81.6228 21.33 81.3381 21.036 80.9835 20.84C80.6288 20.644 80.2461 20.546 79.8355 20.546C79.4248 20.546 79.0421 20.644 78.6875 20.84C78.3421 21.036 78.0668 21.33 77.8615 21.722C77.6561 22.1047 77.5535 22.576 77.5535 23.136C77.5535 23.9667 77.7635 24.6107 78.1835 25.068C78.6128 25.516 79.1495 25.74 79.7935 25.74ZM86.9712 20.406C87.2045 20.014 87.5125 19.7107 87.8952 19.496C88.2872 19.272 88.7492 19.16 89.2812 19.16V20.812H88.8752C88.2499 20.812 87.7739 20.9707 87.4472 21.288C87.1299 21.6053 86.9712 22.156 86.9712 22.94V27H85.3752V19.286H86.9712V20.406ZM97.8182 22.954C97.8182 23.2433 97.7996 23.5047 97.7622 23.738H91.8682C91.9149 24.354 92.1436 24.8487 92.5542 25.222C92.9649 25.5953 93.4689 25.782 94.0662 25.782C94.9249 25.782 95.5316 25.4227 95.8862 24.704H97.6082C97.3749 25.4133 96.9502 25.9967 96.3342 26.454C95.7276 26.902 94.9716 27.126 94.0662 27.126C93.3289 27.126 92.6662 26.9627 92.0782 26.636C91.4996 26.3 91.0422 25.8333 90.7062 25.236C90.3796 24.6293 90.2162 23.9293 90.2162 23.136C90.2162 22.3427 90.3749 21.6473 90.6922 21.05C91.0189 20.4433 91.4716 19.9767 92.0502 19.65C92.6382 19.3233 93.3102 19.16 94.0662 19.16C94.7942 19.16 95.4429 19.3187 96.0122 19.636C96.5816 19.9533 97.0249 20.4013 97.3422 20.98C97.6596 21.5493 97.8182 22.2073 97.8182 22.954ZM96.1522 22.45C96.1429 21.862 95.9329 21.3907 95.5222 21.036C95.1116 20.6813 94.6029 20.504 93.9962 20.504C93.4456 20.504 92.9742 20.6813 92.5822 21.036C92.1902 21.3813 91.9569 21.8527 91.8822 22.45H96.1522Z" fill="#FAFAFA"/>
<defs>
<linearGradient id="paint0_linear_1_1578" x1="59.6006" y1="44" x2="59.6006" y2="0" gradientUnits="userSpaceOnUse">
<stop stop-color="#FAFAFA" stop-opacity="0.05"/>
<stop offset="1" stop-color="#FAFAFA" stop-opacity="0.1"/>
</linearGradient>
<linearGradient id="paint1_linear_1_1578" x1="59.6006" y1="0" x2="59.6006" y2="44" gradientUnits="userSpaceOnUse">
<stop stop-color="#FAFAFA" stop-opacity="0.2"/>
<stop offset="0.16" stop-color="#FAFAFA" stop-opacity="0.05"/>
<stop offset="0.86" stop-color="#FAFAFA" stop-opacity="0.05"/>
<stop offset="1" stop-color="white" stop-opacity="0"/>
</linearGradient>
</defs>
</svg>
