<svg width="32" height="34" viewBox="0 0 32 34" fill="none" xmlns="http://www.w3.org/2000/svg">
<path fill-rule="evenodd" clip-rule="evenodd" d="M20.7436 25.5846C15.5695 25.644 11.2419 25.0982 9.18216 20.5142C7.01965 15.7011 9.08249 8.54831 18.5427 8.54218L20.7436 8.52958V0C16.594 0.130996 12.9795 0.405257 11.4827 0.898006C-3.30616 5.76583 -4.34547 27.6578 11.4979 33.0354C13.0636 33.5668 16.6476 33.8602 20.7436 34V25.5846Z" fill="#7E57C2"/>
<path fill-rule="evenodd" clip-rule="evenodd" d="M22.7266 33.9099L31.2229 33.8572L31.1725 25.439L22.767 25.4805L22.7266 33.9099Z" fill="#FAFAFA"/>
<path fill-rule="evenodd" clip-rule="evenodd" d="M12.8398 20.1749L19.4271 20.1382L19.388 14.283L12.8712 14.3118L12.8398 20.1749Z" fill="#7E57C2"/>
<path d="M19.4272 20.1383C21.2337 20.1383 22.6981 18.8275 22.6981 17.2106C22.6981 15.5937 21.2337 14.283 19.4272 14.283C17.6207 14.283 16.1562 15.5937 16.1562 17.2106C16.1562 18.8275 17.6207 20.1383 19.4272 20.1383Z" fill="#7E57C2"/>
<path d="M12.9686 20.1683C14.5893 20.1683 15.9031 18.8575 15.9031 17.2406C15.9031 15.6237 14.5893 14.313 12.9686 14.313C11.348 14.313 10.0342 15.6237 10.0342 17.2406C10.0342 18.8575 11.348 20.1683 12.9686 20.1683Z" fill="#7E57C2"/>
</svg>
