<svg width="20" height="19" viewBox="0 0 20 19" fill="none" xmlns="http://www.w3.org/2000/svg">
<path d="M13.2348 12.8911C13.0728 13.0055 12.8874 13.0824 12.692 13.1163C12.4966 13.1502 12.2961 13.1402 12.105 13.0871C11.9139 13.0339 11.7371 12.9389 11.5873 12.809C11.4374 12.6791 11.3184 12.5174 11.2387 12.3358L10.6062 10.4137C10.4524 9.95123 10.193 9.53097 9.84849 9.18621C9.50402 8.84145 9.08398 8.58167 8.62166 8.42746L6.7833 7.83028C6.52201 7.73938 6.29607 7.56834 6.13765 7.34153C6.01534 7.16958 5.93567 6.971 5.90523 6.76219C5.87478 6.55337 5.89444 6.34032 5.96256 6.1406C6.03069 5.94088 6.14533 5.76022 6.29703 5.61354C6.44874 5.46686 6.63315 5.35836 6.83505 5.29699L8.65451 4.70557C9.11709 4.55212 9.53756 4.29304 9.88261 3.94885C10.2276 3.60466 10.4878 3.18483 10.6424 2.72264L11.2395 0.885102C11.3314 0.624753 11.5019 0.399405 11.7275 0.24028C11.9544 0.0837981 12.2236 0 12.4992 0C12.7749 0 13.044 0.0837981 13.2709 0.24028C13.5 0.402278 13.6724 0.632147 13.7638 0.897423L14.3684 2.75796C14.5226 3.20815 14.7772 3.61737 15.1129 3.95464C15.4486 4.29192 15.8567 4.54842 16.3061 4.70474L18.1461 5.3011C18.4079 5.39365 18.6344 5.56551 18.794 5.79277C18.9536 6.02003 19.0384 6.29138 19.0366 6.56908C19.0348 6.84677 18.9465 7.117 18.7839 7.34216C18.6214 7.56732 18.3927 7.73622 18.1297 7.82535L16.3094 8.41678C15.7193 8.61483 15.2005 8.98222 14.8177 9.47314C14.5992 9.75489 14.4308 10.0711 14.3199 10.4096L13.7219 12.2446C13.6299 12.5059 13.459 12.7317 13.2332 12.8911M5.22916 17.8854C5.06197 18.0035 4.86215 18.0667 4.65744 18.0661C4.45412 18.0667 4.25557 18.0045 4.08901 17.8879C3.91753 17.7668 3.78918 17.5941 3.72266 17.395L3.41709 16.4561C3.35245 16.2612 3.24331 16.084 3.09831 15.9385C2.95331 15.7931 2.77643 15.6834 2.58169 15.6182L1.62391 15.3077C1.43075 15.2391 1.26352 15.1125 1.14515 14.9451C1.02677 14.7778 0.96303 14.5779 0.962656 14.373C0.962652 14.1626 1.02994 13.9578 1.15468 13.7884C1.27941 13.619 1.45506 13.494 1.65594 13.4316L2.59566 13.1277C2.79068 13.063 2.96793 12.9537 3.11337 12.8085C3.2588 12.6634 3.36842 12.4863 3.43351 12.2915L3.74566 11.3361C3.81297 11.1412 3.93976 10.9722 4.10815 10.8531C4.27655 10.734 4.47807 10.6707 4.68434 10.6721C4.8906 10.6736 5.09122 10.7397 5.25792 10.8612C5.42462 10.9827 5.54902 11.1534 5.61359 11.3493L5.9208 12.2906C5.98376 12.483 6.09004 12.6584 6.23146 12.8032C6.37287 12.9481 6.54565 13.0585 6.73648 13.126L7.69426 13.4365C7.88786 13.5049 8.05553 13.6316 8.17423 13.7991C8.29293 13.9666 8.35683 14.1668 8.35716 14.3721C8.35694 14.5792 8.29152 14.781 8.17017 14.9488C8.04882 15.1165 7.87771 15.2419 7.68112 15.3069L6.74141 15.6125C6.54563 15.677 6.36779 15.7867 6.22224 15.9327C6.07669 16.0787 5.96752 16.2569 5.90355 16.4528L5.59223 17.4081C5.52429 17.6011 5.39797 17.7682 5.2308 17.8862" fill="#C6C6C6"/>
</svg>
